<svg xmlns="http://www.w3.org/2000/svg" xmlns:xlink="http://www.w3.org/1999/xlink">
	<symbol id="about_1" viewBox="0 0 80 79">
  	<path d="M26.01 61.08H14.1v-1.17h10.72V49.86h10.49V38.93h10.91V29.4h10.72V17.95h11.32v1.17H58.13v11.44H47.4v9.54H36.5v10.92H26.01v10.06Zm-5.45-28.71-.83-.82 14.04-13.42c.18-.18.42-.24.65-.12.24.12.36.29.36.52v10.06h-1.19v-8.72l-13.03 12.5Z"/>
  	<path d="M23.88 17.95h10.25v1.17H23.88v-1.17Z" fill-rule="evenodd"/>
  	<path d="M78.81.87V77H1.18V.87h77.63ZM80-.3H0v78.46h80V-.3Z"/>
	</symbol>
	<symbol id="about_2" viewBox="0 0 80 79">
  	<path d="M63.82 62.53H16.17V15.34h40.95c3.68 0 6.64 2.9 6.64 6.51v40.68h.06Zm-46.46-1.16h45.21V21.85c0-2.97-2.43-5.35-5.45-5.35H17.36v44.87Z"/>
  	<path d="M16.77 33.24h30.99v1.16H16.77v-1.16Z" fill-rule="evenodd"/>
  	<path d="M32.88 53.99 26.13 48h-9.36v-1.16h9.83l7.05 6.27-.77.88ZM42.96 48h-4.51v-1.16h3.32V33.82h1.19V48Z"/>
  	<path d="M30.34 28.18h1.18v5.64h-1.18v-5.64Zm0-12.26h1.18v5.64h-1.18v-5.64ZM57.3 33.24h5.75v1.16H57.3v-1.16Z" fill-rule="evenodd"/>
  	<path d="M78.81.87V77H1.18V.87h77.63ZM80-.3H0v78.46h80V-.3Z"/>
	</symbol>
	<symbol id="about_3" viewBox="0 0 80 79">
  	<path d="M26.72 15.34h26.49v1.16H26.72v-1.16Zm0 46.03h26.49v1.16H26.72v-1.16ZM39.7 18.24h1.18v41.73H39.7V18.24Z" fill-rule="evenodd"/>
  	<path d="m31.88 27.37-.83-.82 8.89-8.71c.23-.24.59-.24.83 0l8.83 8.71-.83.82-8.48-8.31-8.41 8.31Zm8.41 33.12c-.18 0-.29-.05-.41-.17l-8.83-8.72.83-.81 8.41 8.31 8.42-8.31.83.81-8.89 8.72c-.06.12-.24.17-.36.17Z"/>
  	<path d="M78.81.87V77H1.18V.87h77.63ZM80-.3H0v78.46h80V-.3Z"/>
	</symbol>
	<symbol id="about_4" viewBox="0 0 80 79">
  	<path d="M.5.857h79v77.459H.5z"/>
  	<path fill-rule="evenodd" clip-rule="evenodd" d="M39.5 55.279V24.876H16v30.403h23.5Zm-24.5.98V23.895h50v32.364H15Zm49-.98H40.5V24.876H64v30.403Zm-21-11.77v-6.374h1v6.375h-1Zm-7 0v-6.374h1v6.375h-1Z"/>
  	<path fill-rule="evenodd" clip-rule="evenodd" d="M15 64.105V15.068h1v49.037h-1Zm49 0V15.068h1v49.037h-1Z"/>
	</symbol>
	<symbol id="about_5" viewBox="0 0 80 78">
  	<path d="M.5-.143h79v77.459H.5z"/>
  	<path d="M63 15.04H42v47.08h21V15.04Zm-22-.98V63.1h23V14.06H41Zm-3 .98H17v47.08h21V15.04Zm-22-.98V63.1h23V14.06H16Z" fill-rule="evenodd"/>
  	<path d="m47.64 54.91 13-12.75.71.69-13 12.75-.71-.69Zm-29-20.6 13-12.75.71.7-13 12.75-.71-.7Z" fill-rule="evenodd"/>
	</symbol>
	<symbol id="about_6" viewBox="0 0 80 78">
  	<path d="M.5-.143h79v77.459H.5z"/>
  	<path d="M40 18.97H20V63.1h20V18.97Zm-21-.98v46.09h22V17.99H19Z" fill-rule="evenodd"/>
  	<path d="M61 18.97H41V63.1h20V18.97Zm-21-.98v46.09h22V17.99H40Z" fill-rule="evenodd"/>
  	<path d="M13.5 13.57h53v50.51h-1V14.55h-51v49.53h-1V13.57Z" fill-rule="evenodd"/>
  	<path d="m35.53 44.63-3.18 3.13c-.2.19-.51.19-.71 0l-3.18-3.13c-.2-.19-.2-.5 0-.69.19-.19.51-.19.71 0l2.33 2.28V28.77h1v17.45l2.32-2.28c.2-.19.52-.19.71 0 .2.19.2.5 0 .69Zm11.93-13.08 3.18-3.12c.2-.19.51-.19.71 0l3.18 3.12c.2.19.2.5 0 .69-.19.19-.51.19-.71 0l-2.32-2.28v17.45h-1V29.96l-2.33 2.28c-.2.19-.52.19-.71 0-.2-.19-.2-.5 0-.69Z" fill-rule="evenodd"/>
	</symbol>
	<symbol id="acc" viewBox="0 0 21 10">
  	<path d="m1 1 9.194 8L20 1"/>
	</symbol>
	<symbol id="arr-top" viewBox="0 0 23 59">
  	<path d="M1 11.5 11.5 1 22 11.5M11.5 1v57" stroke-linecap="round"/>
	</symbol>
	<symbol id="camera" viewBox="0 0 38 27">
  	<path d="M37.324 26H22.956v-8.141m0 0L9.213 23.5l-8.12-5v-6.25L27.953 1l5.623 12.5-10.62 4.359Z"/>
	</symbol>
	<symbol id="choose-lt" viewBox="0 0 80 80">
  	<path d="M.5.5h79v79H.5z"/>
  	<path d="M11 41s5.333-18 27.333-18S67 41 67 41" stroke-linecap="round"/>
  <circle cx="39" cy="41" r="9.5"/>
	</symbol>
	<symbol id="choose-rt" viewBox="0 0 80 80">
  	<path d="M.5.5h79v79H.5z"/>
  	<path d="M30 20h35M14 40h38m-7 20h20m-50 0h20" stroke-linecap="round"/>
  <circle cx="25" cy="20" r="4.5"/>
  <circle cx="57" cy="40" r="4.5"/>
  <circle cx="40" cy="60" r="4.5"/>
	</symbol>
	<symbol id="choose" viewBox="0 0 80 80">
  	<path d="M.5.5h79v79H.5z"/>
  	<path d="M30 20h35M14 40h38m-7 20h20m-50 0h20" stroke-linecap="round"/>
  <circle cx="25" cy="20" r="4.5"/>
  <circle cx="57" cy="40" r="4.5"/>
  <circle cx="40" cy="60" r="4.5"/>
	</symbol>
	<symbol id="doc" viewBox="0 0 39 50">
  	<path d="M38.5 13.367v35.505H1V1h25.133M38.5 13.367 26.133 1M38.5 13.367H26.133V1M10.176 24.936H30.52m-20.346 3.99H27.33m-17.154 3.59H30.52"/>
	</symbol>
	<symbol id="logo" viewBox="0 0 178 44">
  	<path d="M40 22.888h-2.9V7.399H40v15.489Zm8.3-6.709h-8.6v-2.466h8.6v2.466Zm-.2-8.78H51v15.489h-2.9V7.399Zm37.6 15.489V7.399h7c1.8 0 3.1.296 4.1.987 1 .69 1.5 1.677 1.5 2.96 0 1.282-.5 2.268-1.4 2.959-.9.69-2.2.986-3.7.986l.4-.789c1.7 0 3.1.395 4 1.085 1 .691 1.4 1.678 1.4 2.96 0 1.381-.5 2.368-1.5 3.157-1 .79-2.5 1.184-4.4 1.184h-7.4Zm2.9-8.879h3.9c.9 0 1.7-.197 2.1-.592.5-.395.7-.888.7-1.578 0-.691-.2-1.283-.7-1.678-.5-.394-1.2-.591-2.1-.591h-3.9v4.439Zm0 6.61h4.5c1 0 1.8-.197 2.3-.592.5-.395.8-.987.8-1.776 0-.79-.3-1.381-.8-1.677-.5-.395-1.3-.493-2.3-.493h-4.5v4.538Zm23.3 2.466c-1.2 0-2.3-.197-3.3-.592-1-.394-1.9-.986-2.7-1.677-.8-.69-1.3-1.578-1.8-2.565-.4-.986-.6-2.072-.6-3.157s.2-2.17.6-3.157c.4-.986 1-1.776 1.8-2.565.8-.69 1.6-1.282 2.7-1.677 1-.395 2.1-.592 3.3-.592 1.3 0 2.5.197 3.5.69 1.1.395 2 1.086 2.7 1.974l-1.9 1.776c-.6-.592-1.2-1.086-1.9-1.382-.7-.296-1.5-.493-2.3-.493-.8 0-1.6.099-2.3.395-.7.296-1.3.592-1.8 1.085s-.9 1.085-1.2 1.677c-.3.69-.4 1.381-.4 2.17 0 .79.1 1.48.4 2.17.3.692.7 1.283 1.2 1.678.5.493 1.1.888 1.8 1.085.7.296 1.4.395 2.3.395.8 0 1.6-.197 2.3-.493.7-.296 1.3-.79 1.9-1.382l1.9 1.776c-.7.888-1.6 1.48-2.7 1.875-1 .789-2.2.986-3.5.986Zm12-.197V7.399h2.9v15.489h-2.9Zm2-6.511V13.91h5.3v2.467h-5.3Zm5.6-.888-2.7-.395 5.3-7.695h3.1l-5.7 8.09Zm2.7 7.399-5.3-7.498 2.4-1.48 6.2 8.978h-3.3Zm8.4 0V7.399h2.9v10.95l8.4-10.95h2.7v15.489h-2.9v-10.95l-8.4 10.95h-2.7Zm21.4 0V7.794h2.9v10.654l8.4-10.654h2.7v14.995h-2.9V12.233l-8.4 10.655H164ZM0 44V28.511h12.2v2.368H2.9v3.749h4.6c1.9 0 3.3.394 4.3 1.184 1 .789 1.5 1.874 1.5 3.354s-.5 2.664-1.6 3.552C10.5 43.605 9 44 7.1 44H0Zm2.9-2.17h4c1.1 0 2-.198 2.6-.592.6-.395.9-1.085.9-1.875 0-1.578-1.1-2.367-3.4-2.367H3v4.834h-.1ZM37.1 44V28.511h6.4c1.4 0 2.6.198 3.6.69a4.83 4.83 0 0 1 2.3 1.875c.5.79.8 1.776.8 2.96 0 1.085-.3 2.072-.8 2.96-.5.789-1.3 1.48-2.3 1.874-1 .395-2.2.69-3.6.69h-4.8l1.3-1.38V44h-2.9Zm2.9-5.525-1.3-1.38h4.7c1.3 0 2.3-.297 2.9-.79.6-.493 1-1.283 1-2.27 0-.986-.3-1.775-1-2.268-.7-.494-1.6-.79-2.9-.79h-4.7l1.3-1.38v8.878Zm-18.5 3.157h8.8V44H18.6V28.511H30v2.368h-8.5v10.753Zm-.2-6.61h7.8v2.368h-7.8v-2.368ZM85.1 44V28.511h10.6v2.466h-8.4l.7-.69V44h-2.9Zm-9.5-32.457h-.8c-2.6-.198-4.3-.987-5.9-1.776-1.1-.592-2.2-1.085-3.4-1.283-2.7-.592-5.7.198-9.1 2.072a.53.53 0 0 1-.7-.197.516.516 0 0 1 .2-.69c3.6-2.073 6.8-2.862 9.8-2.27 1.4.296 2.6.888 3.7 1.381 1.5.79 3.1 1.579 5.5 1.677 1.4.1 2.8-.098 4.2-.493.3-.098.5.099.6.296.1.296-.1.493-.3.592-1.3.592-2.6.69-3.8.69Zm0 6.017h-.8c-2.6-.197-4.3-.986-5.9-1.775-1.1-.592-2.2-1.085-3.4-1.283-2.7-.592-5.7.099-9.1 2.072a.53.53 0 0 1-.7-.197.516.516 0 0 1 .2-.69c3.6-2.073 6.8-2.862 9.8-2.27 1.4.296 2.6.888 3.7 1.381 1.5.79 3.1 1.579 5.5 1.677 1.4.099 2.8-.098 4.2-.493.3-.099.5.099.6.296.1.296-.1.493-.3.592-1.3.493-2.6.69-3.8.69Zm0 6.709h-.8c-2.6-.197-4.3-.986-5.9-1.776-1.1-.592-2.2-1.085-3.4-1.282-2.7-.592-5.7.197-9.1 2.072-.2.098-.5.098-.7-.198a.516.516 0 0 1 .2-.69c3.6-2.072 6.8-2.861 9.8-2.27 1.4.297 2.6.888 3.7 1.382 1.5.789 3.1 1.578 5.5 1.677 1.4.098 2.8-.099 4.2-.494.3-.098.5.1.6.296.1.296-.1.494-.3.592-1.3.494-2.6.691-3.8.691Zm0 6.413h-.8c-2.6-.198-4.3-.987-5.9-1.776-1.1-.592-2.2-1.085-3.4-1.283-2.7-.592-5.7.198-9.1 2.072a.53.53 0 0 1-.7-.197.516.516 0 0 1 .2-.69c3.5-2.073 6.8-2.862 9.8-2.27 1.4.296 2.6.888 3.7 1.381 1.5.79 3.1 1.579 5.5 1.677 1.4.099 2.8-.098 4.2-.493.3-.099.5.099.6.296.1.296-.1.493-.3.592-1.3.592-2.6.69-3.8.69Zm0 5.918h-.8c-2.6-.196-4.3-.986-5.9-1.775-1.1-.592-2.2-1.085-3.4-1.282-2.7-.592-5.7.197-9.1 2.071a.53.53 0 0 1-.7-.197.516.516 0 0 1 .2-.69c3.6-2.072 6.8-2.861 9.8-2.27 1.4.296 2.6.888 3.7 1.382 1.5.789 3.1 1.578 5.5 1.677 1.4.098 2.8-.099 4.2-.494.3-.098.5.1.6.296.1.296-.1.494-.3.592-1.3.494-2.6.69-3.8.69Zm0 6.216h-.8c-2.6-.197-4.3-.986-5.9-1.776-1.1-.591-2.2-1.085-3.4-1.282-2.7-.592-5.7.197-9.1 2.072-.2.098-.5.098-.7-.198a.516.516 0 0 1 .2-.69c3.6-2.072 6.8-2.861 9.8-2.27 1.4.297 2.6.889 3.7 1.382 1.5.79 3.1 1.578 5.5 1.677 1.4.099 2.8-.099 4.2-.493.3-.099.5.098.6.296.1.296-.1.493-.3.592-1.3.493-2.6.69-3.8.69Zm95.5-37.193c-.3 0-.5-.296-.7-.789-.4-.592-.9-1.578-1.8-2.565-1.4-1.578-3.8-1.184-3.9-1.184-.3 0-.5-.098-.6-.394-.1-.296.1-.494.4-.592.1 0 3-.494 4.8 1.48.8.789 1.3 1.677 1.7 2.269a5.124 5.124 0 0 1 3.2-3.059C176.6.1 177.4 0 177.5 0c.3 0 .5.197.5.493s-.2.494-.5.494c0 0-.8.098-3 .789-2.2.69-2.8 2.86-2.8 3.157v.394l-.4.198c-.1.098-.1.098-.2.098Z"/>
	</symbol>
	<symbol id="mail" viewBox="0 0 35 20">
  	<path d="M1.633.5h31.983v19H1.633z"/>
  	<path d="m1.133.5 16.741 9.25L33.616.5"/>
	</symbol>
	<symbol id="open" viewBox="0 0 56 17">
  	<path d="M.919 1H55.89M.919 16H55.89"/>
	</symbol>
</svg>