<svg xmlns="http://www.w3.org/2000/svg" xmlns:xlink="http://www.w3.org/1999/xlink">
	<symbol id="about_1" viewBox="0 0 80 80">
  	<path d="M26.01 62.57H14.1v-1.18h10.72V51.14h10.49V40h10.91v-9.72h10.72V18.6h11.32v1.19H58.13v11.67H47.4v9.72H36.5v11.14H26.01v10.25ZM20.56 33.3l-.83-.83 14.04-13.69c.18-.18.42-.24.65-.12.24.12.36.3.36.54v10.25h-1.19v-8.89L20.56 33.3Z"/>
  	<path d="M23.88 18.6h10.25v1.19H23.88V18.6Z" fill-rule="evenodd"/>
  	<path d="M78.81 1.18v77.63H1.18V1.18h77.63ZM80 0H0v80h80V0Z"/>
	</symbol>
	<symbol id="about_2" viewBox="0 0 80 80">
  	<path d="M63.82 64.05H16.17V15.94h40.95c3.68 0 6.64 2.96 6.64 6.63v41.48h.06Zm-46.46-1.18h45.21v-40.3c0-3.02-2.43-5.45-5.45-5.45H17.36v45.75Z"/>
  	<path d="M16.77 34.19h30.99v1.18H16.77v-1.18Z" fill-rule="evenodd"/>
  	<path d="m32.88 55.34-6.75-6.1h-9.36v-1.19h9.83l7.05 6.4-.77.89Zm10.08-6.1h-4.51v-1.19h3.32V34.78h1.19v14.46Z"/>
  	<path d="M30.34 29.03h1.18v5.75h-1.18v-5.75Zm0-12.5h1.18v5.75h-1.18v-5.75ZM57.3 34.19h5.75v1.18H57.3v-1.18Z" fill-rule="evenodd"/>
  	<path d="M78.81 1.18v77.63H1.18V1.18h77.63ZM80 0H0v80h80V0Z"/>
	</symbol>
	<symbol id="about_3" viewBox="0 0 80 80">
  	<path d="M26.72 15.94h26.49v1.18H26.72v-1.18Zm0 46.93h26.49v1.18H26.72v-1.18ZM39.7 18.9h1.18v42.55H39.7V18.9Z" fill-rule="evenodd"/>
  	<path d="m31.88 28.2-.83-.83 8.89-8.89c.23-.23.59-.23.83 0l8.83 8.89-.83.83-8.48-8.47-8.41 8.47Zm8.41 33.78c-.18 0-.29-.06-.41-.18l-8.83-8.89.83-.83 8.41 8.48 8.42-8.48.83.83-8.89 8.89c-.06.12-.24.18-.36.18Z"/>
  	<path d="M78.81 1.18v77.63H1.18V1.18h77.63ZM80 0H0v80h80V0Z"/>
	</symbol>
	<symbol id="about_4" viewBox="0 0 80 80">
  	<path d="M.5.5h79v79H.5z"/>
  	<path d="M64 57H15V24h50v33h-1Zm0-1H41V25h23v31ZM39 25H16v31h23V25Zm-1.5 19v-6.5h-2V44h2Zm7 0v-6.5h-2V44h2Z" fill-rule="evenodd"/>
  	<path d="M15.5 15v50m49-50v50"/>
	</symbol>
	<symbol id="about_5" viewBox="0 0 80 80">
  	<path d="M.5.5h79v79H.5z"/>
  	<path d="M64 15H41v50h23V15ZM42 64V16h21v48H42Zm-3-49H16v50h23V15ZM17 64V16h21v48H17Z" fill-rule="evenodd"/>
	</symbol>
	<symbol id="about_6" viewBox="0 0 80 80">
  	<path d="M.5.5h79v79H.5z"/>
  	<path d="M19.5 19.5h21v46h-21zm21 0h21v46h-21z"/>
  	<path d="M14 66V15h52"/>
  	<path d="m32.5 47.79 1.97-1.98c.2-.19.51-.19.71 0 .2.2.2.51 0 .71l-2.83 2.83c-.2.2-.51.2-.71 0l-2.83-2.83a.513.513 0 0 1 0-.71c.2-.19.51-.19.71 0l1.98 1.98V30h1v17.79Zm18-16.59-1.98 1.98c-.2.19-.51.19-.71 0a.513.513 0 0 1 0-.71l2.83-2.83c.2-.2.51-.2.71 0l2.83 2.83c.2.2.2.51 0 .71-.2.19-.51.19-.71 0L51.5 31.2V49h-1V31.2Z" fill-rule="evenodd"/>
	</symbol>
	<symbol id="arr-top" viewBox="0 0 23 59">
  	<path d="M1 11.5 11.5 1 22 11.5M11.5 1v57" stroke-linecap="round"/>
	</symbol>
	<symbol id="camera" viewBox="0 0 38 27">
  	<path d="M37.324 26H22.956v-8.141m0 0L9.213 23.5l-8.12-5v-6.25L27.953 1l5.623 12.5-10.62 4.359Z"/>
	</symbol>
	<symbol id="choose-lt" viewBox="0 0 80 80">
  	<path d="M.5.5h79v79H.5z"/>
  	<path d="M11 41s5.333-18 27.333-18S67 41 67 41" stroke-linecap="round"/>
  <circle cx="39" cy="41" r="9.5"/>
	</symbol>
	<symbol id="choose-rt" viewBox="0 0 80 80">
  	<path d="M.5.5h79v79H.5z"/>
  	<path d="M30 20h35M14 40h38m-7 20h20m-50 0h20" stroke-linecap="round"/>
  <circle cx="25" cy="20" r="4.5"/>
  <circle cx="57" cy="40" r="4.5"/>
  <circle cx="40" cy="60" r="4.5"/>
	</symbol>
	<symbol id="doc" viewBox="0 0 39 50">
  	<path d="M38.5 13.367v35.505H1V1h25.133M38.5 13.367 26.133 1M38.5 13.367H26.133V1M10.176 24.936H30.52m-20.346 3.99H27.33m-17.154 3.59H30.52"/>
	</symbol>
	<symbol id="logo" viewBox="0 0 240 67">
  	<path d="M172.24 34.4V7.58h6.17v17.47l12.8-17.47h5.82V34.4h-6.13V16.97L178.1 34.4h-5.86Zm12.37-28.54c-2.55 0-4.43-.51-5.63-1.54-1.17-1.02-1.77-2.46-1.8-4.32h4.25c.03.91.3 1.62.81 2.1.54.46 1.33.69 2.37.69 1.03 0 1.81-.23 2.34-.69.54-.48.82-1.19.85-2.1h4.25c-.03 1.86-.64 3.3-1.84 4.32-1.2 1.03-3.07 1.54-5.6 1.54ZM140.77 34.4V7.58h6.17v17.47l12.8-17.47h5.82V34.4h-6.13V16.97l-12.8 17.43h-5.86Zm-9.96 0-8.35-12.91 5.02-3.03 10.38 15.94h-7.05Zm-17.43 0V7.58h6.16V34.4h-6.16Zm4.36-10.8v-5.17h9.35v5.17h-9.35Zm10.31-1.92-5.71-.69 8.7-13.41h6.55l-9.54 14.1ZM98.33 34.86c-2.07 0-4-.33-5.78-.99-1.77-.69-3.3-1.66-4.6-2.91a13.623 13.623 0 0 1-3.07-4.41c-.71-1.69-1.07-3.54-1.07-5.56 0-2.01.36-3.87 1.07-5.55.74-1.69 1.76-3.16 3.07-4.41 1.33-1.25 2.87-2.21 4.63-2.87 1.77-.69 3.7-1.04 5.79-1.04 2.33 0 4.42.41 6.28 1.23 1.9.79 3.48 1.97 4.76 3.52l-3.99 3.68c-.92-1.05-1.94-1.82-3.06-2.34-1.13-.53-2.35-.8-3.68-.8-1.25 0-2.4.2-3.45.61-1.05.41-1.96 1-2.72 1.77-.77.76-1.37 1.67-1.8 2.72-.41 1.04-.62 2.21-.62 3.48 0 1.28.21 2.44.62 3.49a8.176 8.176 0 0 0 1.8 2.72c.76.77 1.67 1.35 2.72 1.76 1.05.41 2.2.62 3.45.62 1.33 0 2.55-.26 3.68-.77 1.12-.54 2.14-1.34 3.06-2.41l3.99 3.67a12.422 12.422 0 0 1-4.76 3.57c-1.86.82-3.97 1.22-6.32 1.22ZM57.1 34.4V7.58h12.49c3.12 0 5.54.6 7.28 1.8 1.74 1.2 2.61 2.92 2.61 5.14 0 2.19-.82 3.91-2.46 5.13-1.63 1.2-3.8 1.8-6.51 1.8l.73-1.61c3.01 0 5.35.6 7.01 1.8 1.66 1.21 2.49 2.94 2.49 5.22 0 2.35-.89 4.2-2.68 5.55-1.77 1.33-4.35 1.99-7.74 1.99H57.1Zm6.17-4.59h6.82c1.43 0 2.51-.28 3.25-.85.74-.56 1.12-1.43 1.12-2.6 0-1.13-.38-1.96-1.12-2.49-.74-.56-1.82-.85-3.25-.85h-6.82v6.79Zm0-11.12h5.78c1.36 0 2.38-.26 3.07-.8.69-.56 1.03-1.38 1.03-2.45 0-1.08-.34-1.88-1.03-2.42-.69-.56-1.71-.84-3.07-.84h-5.78v6.51Zm-26.25-.3h12.92v4.83H37.02v-4.83Zm.46 11.03h14.6v4.98H31.32V7.58h20.27v4.98H37.48v16.86ZM18.39 7.58h6.21V34.4h-6.21V7.58ZM6.2 34.4H0V7.58h6.2V34.4Zm12.65-10.99H5.74v-5.25h13.11v5.25Zm201.39 43.56V40.15h18.93l-.04 5.06h-14.18l1.42-1.42.04 23.18h-6.17Zm-20.07-16.01h12.91v4.83h-12.91v-4.83Zm.46 11.03h14.6v4.98h-20.77V40.15h20.27v4.98h-14.1v16.86Zm-33.53 4.98V40.15h11.61c2.41 0 4.47.4 6.21 1.19 1.74.77 3.08 1.88 4.03 3.33.94 1.46 1.41 3.2 1.41 5.21 0 2-.47 3.72-1.41 5.18-.95 1.45-2.29 2.58-4.03 3.37-1.74.77-3.8 1.15-6.21 1.15h-8.16l2.76-2.8v10.19h-6.21Zm6.21-9.5-2.76-2.95h7.82c1.92 0 3.35-.41 4.29-1.22.95-.82 1.42-1.96 1.42-3.42 0-1.48-.47-2.63-1.42-3.44-.94-.82-2.37-1.23-4.29-1.23h-7.82l2.76-2.95v15.21Zm-26.28-6.51h12.91v4.83h-12.91v-4.83Zm.46 11.03h14.6v4.98h-20.77V40.15h20.27v4.98h-14.1v16.86Zm-34.46 4.98V40.15h21.65v4.94H119.2v5.52h7.44c3.24 0 5.71.68 7.39 2.03 1.71 1.36 2.57 3.32 2.57 5.9 0 2.66-.95 4.73-2.84 6.21-1.89 1.48-4.56 2.22-8.01 2.22h-12.72Zm6.17-4.59h6.21c1.58 0 2.8-.31 3.64-.92.84-.64 1.26-1.56 1.26-2.76 0-2.35-1.63-3.53-4.9-3.53h-6.21v7.21Z"/>
	</symbol>
	<symbol id="mail" viewBox="0 0 35 20">
  	<path d="M1.633.5h31.983v19H1.633z"/>
  	<path d="m1.133.5 16.741 9.25L33.616.5"/>
	</symbol>
	<symbol id="open" viewBox="0 0 56 17">
  	<path d="M.919 1H55.89M.919 16H55.89"/>
	</symbol>
</svg>