<svg xmlns="http://www.w3.org/2000/svg" xmlns:xlink="http://www.w3.org/1999/xlink">
	<symbol id="about_1" viewBox="0 0 80 80">
  	<path d="M26.01 62.57H14.1v-1.18h10.72V51.14h10.49V40h10.91v-9.72h10.72V18.6h11.32v1.19H58.13v11.67H47.4v9.72H36.5v11.14H26.01v10.25ZM20.56 33.3l-.83-.83 14.04-13.69c.18-.18.42-.24.65-.12.24.12.36.3.36.54v10.25h-1.19v-8.89L20.56 33.3Z"/>
  	<path d="M23.88 18.6h10.25v1.19H23.88V18.6Z" fill-rule="evenodd"/>
  	<path d="M78.81 1.18v77.63H1.18V1.18h77.63ZM80 0H0v80h80V0Z"/>
	</symbol>
	<symbol id="about_2" viewBox="0 0 80 80">
  	<path d="M63.82 64.05H16.17V15.94h40.95c3.68 0 6.64 2.96 6.64 6.63v41.48h.06Zm-46.46-1.18h45.21v-40.3c0-3.02-2.43-5.45-5.45-5.45H17.36v45.75Z"/>
  	<path d="M16.77 34.19h30.99v1.18H16.77v-1.18Z" fill-rule="evenodd"/>
  	<path d="m32.88 55.34-6.75-6.1h-9.36v-1.19h9.83l7.05 6.4-.77.89Zm10.08-6.1h-4.51v-1.19h3.32V34.78h1.19v14.46Z"/>
  	<path d="M30.34 29.03h1.18v5.75h-1.18v-5.75Zm0-12.5h1.18v5.75h-1.18v-5.75ZM57.3 34.19h5.75v1.18H57.3v-1.18Z" fill-rule="evenodd"/>
  	<path d="M78.81 1.18v77.63H1.18V1.18h77.63ZM80 0H0v80h80V0Z"/>
	</symbol>
	<symbol id="about_3" viewBox="0 0 80 80">
  	<path d="M26.72 15.94h26.49v1.18H26.72v-1.18Zm0 46.93h26.49v1.18H26.72v-1.18ZM39.7 18.9h1.18v42.55H39.7V18.9Z" fill-rule="evenodd"/>
  	<path d="m31.88 28.2-.83-.83 8.89-8.89c.23-.23.59-.23.83 0l8.83 8.89-.83.83-8.48-8.47-8.41 8.47Zm8.41 33.78c-.18 0-.29-.06-.41-.18l-8.83-8.89.83-.83 8.41 8.48 8.42-8.48.83.83-8.89 8.89c-.06.12-.24.18-.36.18Z"/>
  	<path d="M78.81 1.18v77.63H1.18V1.18h77.63ZM80 0H0v80h80V0Z"/>
	</symbol>
	<symbol id="about_4" viewBox="0 0 80 80">
  	<path d="M.5.5h79v79H.5z"/>
  	<path d="M64 57H15V24h50v33h-1Zm0-1H41V25h23v31ZM39 25H16v31h23V25Zm-1.5 19v-6.5h-2V44h2Zm7 0v-6.5h-2V44h2Z" fill-rule="evenodd"/>
  	<path d="M15.5 15v50m49-50v50"/>
	</symbol>
	<symbol id="about_5" viewBox="0 0 80 80">
  	<path d="M.5.5h79v79H.5z"/>
  	<path d="M64 15H41v50h23V15ZM42 64V16h21v48H42Zm-3-49H16v50h23V15ZM17 64V16h21v48H17Z" fill-rule="evenodd"/>
	</symbol>
	<symbol id="about_6" viewBox="0 0 80 80">
  	<path d="M.5.5h79v79H.5z"/>
  	<path d="M19.5 19.5h21v46h-21zm21 0h21v46h-21z"/>
  	<path d="M14 66V15h52"/>
  	<path d="m32.5 47.79 1.97-1.98c.2-.19.51-.19.71 0 .2.2.2.51 0 .71l-2.83 2.83c-.2.2-.51.2-.71 0l-2.83-2.83a.513.513 0 0 1 0-.71c.2-.19.51-.19.71 0l1.98 1.98V30h1v17.79Zm18-16.59-1.98 1.98c-.2.19-.51.19-.71 0a.513.513 0 0 1 0-.71l2.83-2.83c.2-.2.51-.2.71 0l2.83 2.83c.2.2.2.51 0 .71-.2.19-.51.19-.71 0L51.5 31.2V49h-1V31.2Z" fill-rule="evenodd"/>
	</symbol>
</svg>