<svg xmlns="http://www.w3.org/2000/svg" xmlns:xlink="http://www.w3.org/1999/xlink">
	<symbol id="about_1" viewBox="0 0 55 45">
  	<path d="M12.015 44.081H.104V42.92H10.83V32.865h10.489V21.939h10.903v-9.532h10.726V.958h11.319V2.12H44.133v11.45H33.407v9.53H22.504v10.927h-10.49v10.054Zm-5.452-28.71-.83-.814L19.778 1.132c.178-.174.415-.232.652-.116.237.116.355.29.355.523v10.055H19.6V2.876L6.563 15.37Z"/>
  	<path d="M20.133.958H9.881V2.12h10.252V.958Z"/>
	</symbol>
	<symbol id="about_2" viewBox="0 0 48 48">
  	<path d="M47.822 47.535H.178V.343h40.948c3.674 0 6.637 2.906 6.637 6.509v40.682h.06Zm-46.46-1.163h45.216V6.852c0-2.964-2.43-5.347-5.452-5.347H1.363v44.867Z"/>
  	<path d="M31.763 18.243H.77v1.162h30.993v-1.162ZM16.889 38.99l-6.756-5.985H.77v-1.163h9.837l7.052 6.277-.77.872Z"/>
  	<path d="M26.963 33.005h-4.504v-1.163h3.319V18.824h1.185v14.18ZM15.526 13.187H14.34v5.637h1.185v-5.638Zm0-12.264H14.34v5.638h1.185V.923Zm31.526 17.32h-5.748v1.162h5.748v-1.162Z"/>
	</symbol>
	<symbol id="about_3" viewBox="0 0 28 48">
  	<path d="M27.215.343H.725v1.162h26.49V.343Zm0 46.029H.726v1.162h26.489v-1.162ZM14.889 3.249h-1.185v41.728h1.185V3.25Z"/>
  	<path d="m5.881 12.373-.83-.814 8.89-8.718a.58.58 0 0 1 .83 0L23.6 11.56l-.83.814-8.474-8.311-8.415 8.31ZM14.296 45.5a.543.543 0 0 1-.414-.174l-8.83-8.718.83-.814 8.414 8.311 8.415-8.31.83.813-8.89 8.718c-.058.116-.236.174-.355.174Z"/>
	</symbol>
	<symbol id="about_4" viewBox="0 0 50 50">
  	<path fill-rule="evenodd" clip-rule="evenodd" d="M24.5 40.279V9.876H1v30.403h23.5Zm-24.5.98V8.895h50v32.364H0Zm49-.98H25.5V9.876H49v30.403Zm-21-11.77v-6.374h1v6.375h-1Zm-7 0v-6.374h1v6.375h-1Z"/>
  	<path fill-rule="evenodd" clip-rule="evenodd" d="M0 49.105V.068h1v49.037H0Zm49 0V.068h1v49.037h-1Z"/>
	</symbol>
	<symbol id="about_5" viewBox="0 0 48 50">
  	<path fill-rule="evenodd" clip-rule="evenodd" d="M47 1.05H26v47.075h21V1.049ZM25 .067v49.037h23V.068H25Zm-3 .983H1v47.075h21V1.049ZM0 .067v49.037h23V.068H0Z"/>
  	<path fill-rule="evenodd" clip-rule="evenodd" d="m31.646 40.913 13-12.75.707.693-13 12.75-.707-.693Zm-29-20.596 13-12.75.707.694-13 12.75-.707-.694Z"/>
	</symbol>
	<symbol id="about_6" viewBox="0 0 54 52">
  	<path fill-rule="evenodd" clip-rule="evenodd" d="M27 5.972H7v44.133h20V5.972Zm-21-.98v46.094h22V4.99H6Z"/>
  	<path fill-rule="evenodd" clip-rule="evenodd" d="M48 5.972H28v44.133h20V5.972Zm-21-.98v46.094h22V4.99H27Z"/>
  	<path fill-rule="evenodd" clip-rule="evenodd" d="M.5.578h53v50.508h-1V1.56h-51v49.527h-1V.578Z"/>
  	<path fill-rule="evenodd" clip-rule="evenodd" d="m22.535 31.64-3.181 3.12a.507.507 0 0 1-.708 0l-3.182-3.12a.484.484 0 0 1 0-.694.507.507 0 0 1 .708 0L18.5 33.23V15.78h1v17.45l2.328-2.284a.507.507 0 0 1 .707 0 .484.484 0 0 1 0 .693Zm11.93-13.087 3.181-3.12a.507.507 0 0 1 .708 0l3.181 3.12a.484.484 0 0 1 0 .694.507.507 0 0 1-.707 0L38.5 16.963v17.45h-1v-17.45l-2.328 2.284a.507.507 0 0 1-.707 0 .484.484 0 0 1 0-.694Z"/>
	</symbol>
	<symbol id="acc" viewBox="0 0 21 10">
  	<path d="m1 1 9.194 8L20 1"/>
	</symbol>
	<symbol id="arr-top" viewBox="0 0 23 59">
  	<path d="M1 11.5 11.5 1 22 11.5M11.5 1v57" stroke-linecap="round"/>
	</symbol>
	<symbol id="camera" viewBox="0 0 38 27">
  	<path d="M37.324 26H22.956v-8.141m0 0L9.213 23.5l-8.12-5v-6.25L27.953 1l5.623 12.5-10.62 4.359Z"/>
	</symbol>
	<symbol id="choose-lt" viewBox="0 0 58 29">
  	<path d="M1 19.007s5.333-18 27.333-18 28.667 18 28.667 18" stroke-linecap="round"/>
  <circle cx="29" cy="19.007" r="9.5"/>
	</symbol>
	<symbol id="choose-rt" viewBox="0 0 53 50">
  	<path d="M17 5.007h35m-51 20h38m-7 20h20m-50 0h20" stroke-linecap="round"/>
  <circle cx="12" cy="5.007" r="4.5"/>
  <circle cx="44" cy="25.007" r="4.5"/>
  <circle cx="27" cy="45.007" r="4.5"/>
	</symbol>
	<symbol id="choose" viewBox="0 0 80 80">
  	<path d="M.5.5h79v79H.5z"/>
  	<path d="M30 20h35M14 40h38m-7 20h20m-50 0h20" stroke-linecap="round"/>
  <circle cx="25" cy="20" r="4.5"/>
  <circle cx="57" cy="40" r="4.5"/>
  <circle cx="40" cy="60" r="4.5"/>
	</symbol>
	<symbol id="doc" viewBox="0 0 39 50">
  	<path d="M38.5 13.367v35.505H1V1h25.133M38.5 13.367 26.133 1M38.5 13.367H26.133V1M10.176 24.936H30.52m-20.346 3.99H27.33m-17.154 3.59H30.52"/>
	</symbol>
	<symbol id="i" viewBox="0 0 2 11">
  	<path d="M.238 10.598v-7.42h1.344v7.42H.238ZM.91 1.75a.92.92 0 0 1-.658-.252A.838.838 0 0 1 0 .882C0 .63.084.42.252.252A.92.92 0 0 1 .91 0c.261 0 .476.084.644.252.177.159.266.36.266.602a.902.902 0 0 1-.252.644c-.168.168-.387.252-.658.252Z"/>
	</symbol>
	<symbol id="icon-1" viewBox="0 0 33 22">
  	<path clip-rule="evenodd" d="M18.094 20.984C7.369 20.984 1.264 13.484 1 1h5.362c.17 9.161 4.138 13.038 7.268 13.845V1h5.053v7.911c3.1-.348 6.354-3.94 7.438-7.911h5.053c-.837 4.89-4.37 8.481-6.881 9.968 2.51 1.203 6.524 4.336 8.058 10.032h-5.563c-1.194-3.797-4.17-6.74-8.105-7.136V21h-.59v-.016Z" stroke-miterlimit="10"/>
	</symbol>
	<symbol id="icon-2" viewBox="0 0 27 22">
  	<path d="M24.015 1.178C20.745 2.496 6.737 8.163 2.87 9.712c-2.602.992-1.071 1.916-1.071 1.916s2.212.747 4.117 1.304c1.906.557 2.908-.068 2.908-.068l8.93-5.87c3.173-2.106 2.408-.367 1.642.367-1.641 1.603-4.368 4.144-6.65 6.183-1.015.87-.5 1.603-.069 1.984 1.642 1.359 6.15 4.144 6.4 4.335 1.335.924 3.964 2.256 4.368-.557l1.585-9.717c.501-3.274 1.016-6.305 1.072-7.174.194-2.107-2.087-1.237-2.087-1.237Z" stroke-miterlimit="10"/>
	</symbol>
	<symbol id="icon-3" viewBox="0 0 22 22">
  	<path d="m5.652 19.434.377.188A9.851 9.851 0 0 0 11.103 21c5.493-.01 10.01-4.52 10.01-9.99a9.975 9.975 0 0 0-2.935-7.056A10.008 10.008 0 0 0 11.082 1C5.61 1 1.113 5.488 1.113 10.927v.125a10.246 10.246 0 0 0 1.51 5.25l.251.376-1.006 3.685 3.784-.929Z" stroke-miterlimit="10"/>
  	<path d="m16.35 13.383-.61-.284s-.879-.4-1.434-.675c-.055 0-.11-.057-.166-.057a.714.714 0 0 0-.389.114c-.12.067-.055.057-.823.96a.311.311 0 0 1-.277.17h-.056a.42.42 0 0 1-.222-.114l-.277-.114a5.363 5.363 0 0 1-1.6-1.073c-.111-.114-.277-.228-.389-.342a6.188 6.188 0 0 1-1.045-1.358l-.055-.114a.864.864 0 0 1-.111-.228.442.442 0 0 1 .055-.284c.047-.086.222-.285.389-.456.166-.171.166-.285.277-.4a.725.725 0 0 0 .111-.569 24.143 24.143 0 0 0-.878-2.146.654.654 0 0 0-.389-.285h-.61c-.111 0-.222.057-.333.057l-.056.057c-.11.057-.221.17-.332.228-.111.057-.167.228-.278.342a2.945 2.945 0 0 0-.61 1.757c.009.446.101.892.277 1.3l.056.172a9.365 9.365 0 0 0 2.034 2.886l.222.229a3.4 3.4 0 0 1 .444.455 9.714 9.714 0 0 0 3.958 2.147c.167.057.389.057.555.114h.555c.287-.02.574-.095.823-.228.14-.067.269-.143.389-.228l.11-.114c.112-.114.223-.171.334-.285.11-.095.203-.21.277-.342.102-.257.176-.522.222-.788v-.4a3.733 3.733 0 0 0-.148-.104Z" stroke-miterlimit="10"/>
	</symbol>
	<symbol id="line" viewBox="0 0 56 2">
  	<path d="M.919 1H55.89"/>
	</symbol>
	<symbol id="logo" viewBox="0 0 178 44">
  	<path d="M40 22.888h-2.9V7.399H40v15.489Zm8.3-6.709h-8.6v-2.466h8.6v2.466Zm-.2-8.78H51v15.489h-2.9V7.399Zm37.6 15.489V7.399h7c1.8 0 3.1.296 4.1.987 1 .69 1.5 1.677 1.5 2.96 0 1.282-.5 2.268-1.4 2.959-.9.69-2.2.986-3.7.986l.4-.789c1.7 0 3.1.395 4 1.085 1 .691 1.4 1.678 1.4 2.96 0 1.381-.5 2.368-1.5 3.157-1 .79-2.5 1.184-4.4 1.184h-7.4Zm2.9-8.879h3.9c.9 0 1.7-.197 2.1-.592.5-.395.7-.888.7-1.578 0-.691-.2-1.283-.7-1.678-.5-.394-1.2-.591-2.1-.591h-3.9v4.439Zm0 6.61h4.5c1 0 1.8-.197 2.3-.592.5-.395.8-.987.8-1.776 0-.79-.3-1.381-.8-1.677-.5-.395-1.3-.493-2.3-.493h-4.5v4.538Zm23.3 2.466c-1.2 0-2.3-.197-3.3-.592-1-.394-1.9-.986-2.7-1.677-.8-.69-1.3-1.578-1.8-2.565-.4-.986-.6-2.072-.6-3.157s.2-2.17.6-3.157c.4-.986 1-1.776 1.8-2.565.8-.69 1.6-1.282 2.7-1.677 1-.395 2.1-.592 3.3-.592 1.3 0 2.5.197 3.5.69 1.1.395 2 1.086 2.7 1.974l-1.9 1.776c-.6-.592-1.2-1.086-1.9-1.382-.7-.296-1.5-.493-2.3-.493-.8 0-1.6.099-2.3.395-.7.296-1.3.592-1.8 1.085s-.9 1.085-1.2 1.677c-.3.69-.4 1.381-.4 2.17 0 .79.1 1.48.4 2.17.3.692.7 1.283 1.2 1.678.5.493 1.1.888 1.8 1.085.7.296 1.4.395 2.3.395.8 0 1.6-.197 2.3-.493.7-.296 1.3-.79 1.9-1.382l1.9 1.776c-.7.888-1.6 1.48-2.7 1.875-1 .789-2.2.986-3.5.986Zm12-.197V7.399h2.9v15.489h-2.9Zm2-6.511V13.91h5.3v2.467h-5.3Zm5.6-.888-2.7-.395 5.3-7.695h3.1l-5.7 8.09Zm2.7 7.399-5.3-7.498 2.4-1.48 6.2 8.978h-3.3Zm8.4 0V7.399h2.9v10.95l8.4-10.95h2.7v15.489h-2.9v-10.95l-8.4 10.95h-2.7Zm21.4 0V7.794h2.9v10.654l8.4-10.654h2.7v14.995h-2.9V12.233l-8.4 10.655H164ZM0 44V28.511h12.2v2.368H2.9v3.749h4.6c1.9 0 3.3.394 4.3 1.184 1 .789 1.5 1.874 1.5 3.354s-.5 2.664-1.6 3.552C10.5 43.605 9 44 7.1 44H0Zm2.9-2.17h4c1.1 0 2-.198 2.6-.592.6-.395.9-1.085.9-1.875 0-1.578-1.1-2.367-3.4-2.367H3v4.834h-.1ZM37.1 44V28.511h6.4c1.4 0 2.6.198 3.6.69a4.83 4.83 0 0 1 2.3 1.875c.5.79.8 1.776.8 2.96 0 1.085-.3 2.072-.8 2.96-.5.789-1.3 1.48-2.3 1.874-1 .395-2.2.69-3.6.69h-4.8l1.3-1.38V44h-2.9Zm2.9-5.525-1.3-1.38h4.7c1.3 0 2.3-.297 2.9-.79.6-.493 1-1.283 1-2.27 0-.986-.3-1.775-1-2.268-.7-.494-1.6-.79-2.9-.79h-4.7l1.3-1.38v8.878Zm-18.5 3.157h8.8V44H18.6V28.511H30v2.368h-8.5v10.753Zm-.2-6.61h7.8v2.368h-7.8v-2.368ZM85.1 44V28.511h10.6v2.466h-8.4l.7-.69V44h-2.9Zm-9.5-32.457h-.8c-2.6-.198-4.3-.987-5.9-1.776-1.1-.592-2.2-1.085-3.4-1.283-2.7-.592-5.7.198-9.1 2.072a.53.53 0 0 1-.7-.197.516.516 0 0 1 .2-.69c3.6-2.073 6.8-2.862 9.8-2.27 1.4.296 2.6.888 3.7 1.381 1.5.79 3.1 1.579 5.5 1.677 1.4.1 2.8-.098 4.2-.493.3-.098.5.099.6.296.1.296-.1.493-.3.592-1.3.592-2.6.69-3.8.69Zm0 6.017h-.8c-2.6-.197-4.3-.986-5.9-1.775-1.1-.592-2.2-1.085-3.4-1.283-2.7-.592-5.7.099-9.1 2.072a.53.53 0 0 1-.7-.197.516.516 0 0 1 .2-.69c3.6-2.073 6.8-2.862 9.8-2.27 1.4.296 2.6.888 3.7 1.381 1.5.79 3.1 1.579 5.5 1.677 1.4.099 2.8-.098 4.2-.493.3-.099.5.099.6.296.1.296-.1.493-.3.592-1.3.493-2.6.69-3.8.69Zm0 6.709h-.8c-2.6-.197-4.3-.986-5.9-1.776-1.1-.592-2.2-1.085-3.4-1.282-2.7-.592-5.7.197-9.1 2.072-.2.098-.5.098-.7-.198a.516.516 0 0 1 .2-.69c3.6-2.072 6.8-2.861 9.8-2.27 1.4.297 2.6.888 3.7 1.382 1.5.789 3.1 1.578 5.5 1.677 1.4.098 2.8-.099 4.2-.494.3-.098.5.1.6.296.1.296-.1.494-.3.592-1.3.494-2.6.691-3.8.691Zm0 6.413h-.8c-2.6-.198-4.3-.987-5.9-1.776-1.1-.592-2.2-1.085-3.4-1.283-2.7-.592-5.7.198-9.1 2.072a.53.53 0 0 1-.7-.197.516.516 0 0 1 .2-.69c3.5-2.073 6.8-2.862 9.8-2.27 1.4.296 2.6.888 3.7 1.381 1.5.79 3.1 1.579 5.5 1.677 1.4.099 2.8-.098 4.2-.493.3-.099.5.099.6.296.1.296-.1.493-.3.592-1.3.592-2.6.69-3.8.69Zm0 5.918h-.8c-2.6-.196-4.3-.986-5.9-1.775-1.1-.592-2.2-1.085-3.4-1.282-2.7-.592-5.7.197-9.1 2.071a.53.53 0 0 1-.7-.197.516.516 0 0 1 .2-.69c3.6-2.072 6.8-2.861 9.8-2.27 1.4.296 2.6.888 3.7 1.382 1.5.789 3.1 1.578 5.5 1.677 1.4.098 2.8-.099 4.2-.494.3-.098.5.1.6.296.1.296-.1.494-.3.592-1.3.494-2.6.69-3.8.69Zm0 6.216h-.8c-2.6-.197-4.3-.986-5.9-1.776-1.1-.591-2.2-1.085-3.4-1.282-2.7-.592-5.7.197-9.1 2.072-.2.098-.5.098-.7-.198a.516.516 0 0 1 .2-.69c3.6-2.072 6.8-2.861 9.8-2.27 1.4.297 2.6.889 3.7 1.382 1.5.79 3.1 1.578 5.5 1.677 1.4.099 2.8-.099 4.2-.493.3-.099.5.098.6.296.1.296-.1.493-.3.592-1.3.493-2.6.69-3.8.69Zm95.5-37.193c-.3 0-.5-.296-.7-.789-.4-.592-.9-1.578-1.8-2.565-1.4-1.578-3.8-1.184-3.9-1.184-.3 0-.5-.098-.6-.394-.1-.296.1-.494.4-.592.1 0 3-.494 4.8 1.48.8.789 1.3 1.677 1.7 2.269a5.124 5.124 0 0 1 3.2-3.059C176.6.1 177.4 0 177.5 0c.3 0 .5.197.5.493s-.2.494-.5.494c0 0-.8.098-3 .789-2.2.69-2.8 2.86-2.8 3.157v.394l-.4.198c-.1.098-.1.098-.2.098Z"/>
	</symbol>
	<symbol id="mail" viewBox="0 0 35 20">
  	<path d="M1.633.5h31.983v19H1.633z"/>
  	<path d="m1.133.5 16.741 9.25L33.616.5"/>
	</symbol>
	<symbol id="open" viewBox="0 0 56 17">
  	<path d="M.919 1H55.89M.919 16H55.89"/>
	</symbol>
	<symbol id="search" viewBox="0 0 30 28">
  	<path d="M11.312 20.328c.602-.903.978-1.957.978-3.086 0-3.086-2.559-5.645-5.645-5.645C3.56 11.597 1 14.157 1 17.242c0 3.086 2.56 5.645 5.645 5.645.979 0 1.957-.3 2.785-.752l4.945 4.945c.226.226.602.377.904.377.3 0 .677-.151.903-.377.527-.527.527-1.355 0-1.806l-4.87-4.946Z" stroke-miterlimit="10"/>
  	<path d="m7.172 9.565 8.506-8.505c.15-.15.3-.15.451 0L29 13.93m-21.978-.225c1.204-.15 2.56 1.053 2.634 2.333" stroke-miterlimit="10" stroke-linecap="round" stroke-linejoin="round"/>
  	<path d="m10.032 10.468 5.87-5.87 10.162 10.16v6.85h-8.355v-7.15h-2.935v7.15" stroke-miterlimit="10" stroke-linecap="round" stroke-linejoin="round"/>
	</symbol>
</svg>