<svg width="80" height="79" fill="none" xmlns="http://www.w3.org/2000/svg"><path id="Vector" d="M63.82 62.53H16.17V15.34h40.95c3.68 0 6.64 2.9 6.64 6.51v40.68h.06zm-46.46-1.16h45.21V21.85c0-2.97-2.43-5.35-5.45-5.35H17.36v44.87z" fill="#FFF" fill-opacity="1" fill-rule="nonzero"/><path id="Vector" d="M16.77 33.24h30.99v1.16H16.77v-1.16z" fill="#FFF" fill-opacity="1" fill-rule="evenodd"/><path id="Vector" d="M32.88 53.99L26.13 48h-9.36v-1.16h9.83l7.05 6.27-.77.88zM42.96 48h-4.51v-1.16h3.32V33.82h1.19V48z" fill="#FFF" fill-opacity="1" fill-rule="nonzero"/><path id="Vector" d="M30.34 28.18h1.18v5.64h-1.18v-5.64zm0-12.26h1.18v5.64h-1.18v-5.64zM57.3 33.24h5.75v1.16H57.3v-1.16z" fill="#FFF" fill-opacity="1" fill-rule="evenodd"/><path id="Vector" d="M78.81.87V77H1.18V.87h77.63zM80-.3H0v78.46h80V-.3z" fill="#FFF" fill-opacity="1" fill-rule="nonzero"/></svg>