<svg width="80" height="79" fill="none" xmlns="http://www.w3.org/2000/svg"><path id="Vector" d="M26.72 15.34h26.49v1.16H26.72v-1.16zm0 46.03h26.49v1.16H26.72v-1.16zM39.7 18.24h1.18v41.73H39.7V18.24z" fill="#FFF" fill-opacity="1" fill-rule="evenodd"/><path id="Vector" d="M31.88 27.37l-.83-.82 8.89-8.71c.23-.24.59-.24.83 0l8.83 8.71-.83.82-8.48-8.31-8.41 8.31zm8.41 33.12c-.18 0-.29-.05-.41-.17l-8.83-8.72.83-.81 8.41 8.31 8.42-8.31.83.81-8.89 8.72c-.06.12-.24.17-.36.17z" fill="#FFF" fill-opacity="1" fill-rule="nonzero"/><path id="Vector" d="M78.81.87V77H1.18V.87h77.63zM80-.3H0v78.46h80V-.3z" fill="#FFF" fill-opacity="1" fill-rule="nonzero"/></svg>