<svg width="80" height="79" fill="none" xmlns="http://www.w3.org/2000/svg"><path id="Vector" d="M26.01 61.08H14.1v-1.17h10.72V49.86h10.49V38.93h10.91V29.4h10.72V17.95h11.32v1.17H58.13v11.44H47.4v9.54H36.5v10.92H26.01v10.06zm-5.45-28.71l-.83-.82 14.04-13.42c.18-.18.42-.24.65-.12.24.12.36.29.36.52v10.06h-1.19v-8.72l-13.03 12.5z" fill="#FFF" fill-opacity="1" fill-rule="nonzero"/><path id="Vector" d="M23.88 17.95h10.25v1.17H23.88v-1.17z" fill="#FFF" fill-opacity="1" fill-rule="evenodd"/><path id="Vector" d="M78.81.87V77H1.18V.87h77.63zM80-.3H0v78.46h80V-.3z" fill="#FFF" fill-opacity="1" fill-rule="nonzero"/></svg>