<svg width="80" height="78" fill="none" xmlns="http://www.w3.org/2000/svg"><path id="Rectangle 70" stroke="#FFF" stroke-opacity="1" stroke-width="1" d="M.5-.143h79v77.459H.5z"/><path id="Rectangle 86 (Stroke)" d="M40 18.97H20V63.1h20V18.97zm-21-.98v46.09h22V17.99H19z" fill="#FFF" fill-opacity="1" fill-rule="evenodd"/><path id="Rectangle 87 (Stroke)" d="M61 18.97H41V63.1h20V18.97zm-21-.98v46.09h22V17.99H40z" fill="#FFF" fill-opacity="1" fill-rule="evenodd"/><path id="Vector 6 (Stroke)" d="M13.5 13.57h53v50.51h-1V14.55h-51v49.53h-1V13.57z" fill="#FFF" fill-opacity="1" fill-rule="evenodd"/><path id="Arrow 1 (Stroke)" d="M35.53 44.63l-3.18 3.13c-.2.19-.51.19-.71 0l-3.18-3.13c-.2-.19-.2-.5 0-.69.19-.19.51-.19.71 0l2.33 2.28V28.77h1v17.45l2.32-2.28c.2-.19.52-.19.71 0 .2.19.2.5 0 .69z" fill="#FFF" fill-opacity="1" fill-rule="evenodd"/><path id="Arrow 2 (Stroke)" d="M47.46 31.55l3.18-3.12c.2-.19.51-.19.71 0l3.18 3.12c.2.19.2.5 0 .69-.19.19-.51.19-.71 0l-2.32-2.28v17.45h-1V29.96l-2.33 2.28c-.2.19-.52.19-.71 0-.2-.19-.2-.5 0-.69z" fill="#FFF" fill-opacity="1" fill-rule="evenodd"/></svg>