<svg width="80.000000" height="79.000000" viewBox="0 0 80 79" fill="none" xmlns="http://www.w3.org/2000/svg" xmlns:xlink="http://www.w3.org/1999/xlink">
	<desc>
			Created with Pixso.
	</desc>
	<defs/>
	<path id="Vector" d="M26.01 61.08L14.1 61.08L14.1 59.91L24.82 59.91L24.82 49.86L35.31 49.86L35.31 38.93L46.22 38.93L46.22 29.4L56.94 29.4L56.94 17.95L68.26 17.95L68.26 19.12L58.13 19.12L58.13 30.56L47.4 30.56L47.4 40.1L36.5 40.1L36.5 51.02L26.01 51.02L26.01 61.08Z" fill="#FFFFFF" fill-opacity="1.000000" fill-rule="nonzero"/>
	<path id="Vector" d="M20.56 32.37L19.73 31.55L33.77 18.13C33.95 17.95 34.19 17.89 34.42 18.01C34.66 18.13 34.78 18.3 34.78 18.53L34.78 28.59L33.59 28.59L33.59 19.87L20.56 32.37Z" fill="#FFFFFF" fill-opacity="1.000000" fill-rule="nonzero"/>
	<path id="Vector" d="M23.88 17.95L34.13 17.95L34.13 19.12L23.88 19.12L23.88 17.95Z" fill="#FFFFFF" fill-opacity="1.000000" fill-rule="evenodd"/>
	<path id="Vector" d="M78.81 0.87L78.81 77L1.18 77L1.18 0.87L78.81 0.87ZM80 -0.3L0 -0.3L0 78.16L80 78.16L80 -0.3Z" fill="#FFFFFF" fill-opacity="1.000000" fill-rule="nonzero"/>
</svg>
