<svg width="80.000000" height="78.000000" viewBox="0 0 80 78" fill="none" xmlns="http://www.w3.org/2000/svg" xmlns:xlink="http://www.w3.org/1999/xlink">
	<desc>
			Created with Pixso.
	</desc>
	<defs/>
	<rect id="Rectangle 70" x="0.500000" y="-0.142578" width="79.000000" height="77.459106" stroke="#FFFFFF" stroke-opacity="1.000000" stroke-width="1.000000"/>
	<path id="Rectangle 86 (Stroke)" d="M40 18.97L20 18.97L20 63.1L40 63.1L40 18.97ZM19 17.99L19 64.08L41 64.08L41 17.99L19 17.99Z" fill="#FFFFFF" fill-opacity="1.000000" fill-rule="evenodd"/>
	<path id="Rectangle 87 (Stroke)" d="M61 18.97L41 18.97L41 63.1L61 63.1L61 18.97ZM40 17.99L40 64.08L62 64.08L62 17.99L40 17.99Z" fill="#FFFFFF" fill-opacity="1.000000" fill-rule="evenodd"/>
	<path id="Vector 6 (Stroke)" d="M13.5 13.57L66.5 13.57L66.5 64.08L65.5 64.08L65.5 14.55L14.5 14.55L14.5 64.08L13.5 64.08L13.5 13.57Z" fill="#FFFFFF" fill-opacity="1.000000" fill-rule="evenodd"/>
	<path id="Arrow 1 (Stroke)" d="M35.53 44.63L32.35 47.76C32.15 47.95 31.84 47.95 31.64 47.76L28.46 44.63C28.26 44.44 28.26 44.13 28.46 43.94C28.65 43.75 28.97 43.75 29.17 43.94L31.5 46.22L31.5 28.77L32.5 28.77L32.5 46.22L34.82 43.94C35.02 43.75 35.34 43.75 35.53 43.94C35.73 44.13 35.73 44.44 35.53 44.63Z" fill="#FFFFFF" fill-opacity="1.000000" fill-rule="evenodd"/>
	<path id="Arrow 2 (Stroke)" d="M47.46 31.55L50.64 28.43C50.84 28.24 51.15 28.24 51.35 28.43L54.53 31.55C54.73 31.74 54.73 32.05 54.53 32.24C54.34 32.43 54.02 32.43 53.82 32.24L51.5 29.96L51.5 47.41L50.5 47.41L50.5 29.96L48.17 32.24C47.97 32.43 47.65 32.43 47.46 32.24C47.26 32.05 47.26 31.74 47.46 31.55Z" fill="#FFFFFF" fill-opacity="1.000000" fill-rule="evenodd"/>
</svg>
