<svg width="80.000000" height="79.000000" viewBox="0 0 80 79" fill="none" xmlns="http://www.w3.org/2000/svg" xmlns:xlink="http://www.w3.org/1999/xlink">
	<desc>
			Created with Pixso.
	</desc>
	<defs/>
	<path id="Vector" d="M63.82 62.53L16.17 62.53L16.17 15.34L57.12 15.34C60.8 15.34 63.76 18.24 63.76 21.85L63.76 62.53L63.82 62.53ZM17.36 61.37L62.57 61.37L62.57 21.85C62.57 18.88 60.14 16.5 57.12 16.5L17.36 16.5L17.36 61.37Z" fill="#FFFFFF" fill-opacity="1.000000" fill-rule="nonzero"/>
	<path id="Vector" d="M16.77 33.24L47.76 33.24L47.76 34.4L16.77 34.4L16.77 33.24Z" fill="#FFFFFF" fill-opacity="1.000000" fill-rule="evenodd"/>
	<path id="Vector" d="M32.88 53.99L26.13 48L16.77 48L16.77 46.84L26.6 46.84L33.65 53.11L32.88 53.99Z" fill="#FFFFFF" fill-opacity="1.000000" fill-rule="nonzero"/>
	<path id="Vector" d="M42.96 48L38.45 48L38.45 46.84L41.77 46.84L41.77 33.82L42.96 33.82L42.96 48Z" fill="#FFFFFF" fill-opacity="1.000000" fill-rule="nonzero"/>
	<path id="Vector" d="M30.34 28.18L31.52 28.18L31.52 33.82L30.34 33.82L30.34 28.18Z" fill="#FFFFFF" fill-opacity="1.000000" fill-rule="evenodd"/>
	<path id="Vector" d="M30.34 15.92L31.52 15.92L31.52 21.56L30.34 21.56L30.34 15.92Z" fill="#FFFFFF" fill-opacity="1.000000" fill-rule="evenodd"/>
	<path id="Vector" d="M57.3 33.24L63.05 33.24L63.05 34.4L57.3 34.4L57.3 33.24Z" fill="#FFFFFF" fill-opacity="1.000000" fill-rule="evenodd"/>
	<path id="Vector" d="M78.81 0.87L78.81 77L1.18 77L1.18 0.87L78.81 0.87ZM80 -0.3L0 -0.3L0 78.16L80 78.16L80 -0.3Z" fill="#FFFFFF" fill-opacity="1.000000" fill-rule="nonzero"/>
</svg>
