<svg width="80.000000" height="78.000000" viewBox="0 0 80 78" fill="none" xmlns="http://www.w3.org/2000/svg" xmlns:xlink="http://www.w3.org/1999/xlink">
	<desc>
			Created with Pixso.
	</desc>
	<defs/>
	<rect id="Rectangle 69" x="0.500000" y="-0.142578" width="79.000000" height="77.459106" stroke="#FFFFFF" stroke-opacity="1.000000" stroke-width="1.000000"/>
	<path id="Rectangle 80 (Stroke)" d="M63 15.04L42 15.04L42 62.12L63 62.12L63 15.04ZM41 14.06L41 63.1L64 63.1L64 14.06L41 14.06Z" fill="#FFFFFF" fill-opacity="1.000000" fill-rule="evenodd"/>
	<path id="Rectangle 81 (Stroke)" d="M38 15.04L17 15.04L17 62.12L38 62.12L38 15.04ZM16 14.06L16 63.1L39 63.1L39 14.06L16 14.06Z" fill="#FFFFFF" fill-opacity="1.000000" fill-rule="evenodd"/>
	<path id="Line 9 (Stroke)" d="M47.64 54.91L60.64 42.16L61.35 42.85L48.35 55.6L47.64 54.91Z" fill="#FFFFFF" fill-opacity="1.000000" fill-rule="evenodd"/>
	<path id="Line 10 (Stroke)" d="M18.64 34.31L31.64 21.56L32.35 22.26L19.35 35.01L18.64 34.31Z" fill="#FFFFFF" fill-opacity="1.000000" fill-rule="evenodd"/>
</svg>
