<svg width="28" height="48" viewBox="0 0 28 48" fill="none" xmlns="http://www.w3.org/2000/svg">
<path d="M27.2148 0.342773H0.725922V1.50513H27.2148V0.342773Z" fill="white"/>
<path d="M27.2148 46.3716H0.725952V47.5339H27.2148V46.3716Z" fill="white"/>
<path d="M14.8889 3.24854H13.7037V44.9772H14.8889V3.24854Z" fill="white"/>
<path d="M5.88148 12.3727L5.05185 11.559L13.9407 2.84135C14.1778 2.60887 14.5333 2.60887 14.7704 2.84135L23.6 11.559L22.7704 12.3727L14.2963 4.06182L5.88148 12.3727Z" fill="white"/>
<path d="M14.2963 45.5001C14.1185 45.5001 14 45.442 13.8815 45.3258L5.05185 36.6081L5.88148 35.7944L14.2963 44.1053L22.7111 35.7944L23.5407 36.6081L14.6518 45.3258C14.5926 45.442 14.4148 45.5001 14.2963 45.5001Z" fill="white"/>
</svg>
