<svg width="80.000000" height="80.000000" viewBox="0 0 80 80" fill="none" xmlns="http://www.w3.org/2000/svg" xmlns:xlink="http://www.w3.org/1999/xlink">
	<desc>
			Created with Pixso.
	</desc>
	<defs/>
	<rect id="Rectangle 70" x="0.500000" y="0.500000" width="79.000000" height="79.000000" stroke="#FFFFFF" stroke-opacity="1.000000" stroke-width="1.000000"/>
	<rect id="Rectangle 86" x="19.500000" y="19.500000" width="21.000000" height="46.000000" stroke="#FFFFFF" stroke-opacity="1.000000" stroke-width="1.000000"/>
	<rect id="Rectangle 87" x="40.500000" y="19.500000" width="21.000000" height="46.000000" stroke="#FFFFFF" stroke-opacity="1.000000" stroke-width="1.000000"/>
	<path id="Vector 6" d="M14 66L14 15L66 15L66 " stroke="#FFFFFF" stroke-opacity="1.000000" stroke-width="1.000000"/>
	<path id="Arrow 1" d="M32.5 47.79L34.47 45.81C34.67 45.62 34.98 45.62 35.18 45.81C35.38 46.01 35.38 46.32 35.18 46.52L32.35 49.35C32.15 49.55 31.84 49.55 31.64 49.35L28.81 46.52C28.62 46.32 28.62 46.01 28.81 45.81C29.01 45.62 29.32 45.62 29.52 45.81L31.5 47.79L31.5 30L32.5 30L32.5 47.79Z" fill="#FFFFFF" fill-opacity="1.000000" fill-rule="evenodd"/>
	<path id="Arrow 2" d="M50.5 31.2L48.52 33.18C48.32 33.37 48.01 33.37 47.81 33.18C47.62 32.98 47.62 32.67 47.81 32.47L50.64 29.64C50.84 29.44 51.15 29.44 51.35 29.64L54.18 32.47C54.38 32.67 54.38 32.98 54.18 33.18C53.98 33.37 53.67 33.37 53.47 33.18L51.5 31.2L51.5 49L50.5 49L50.5 31.2Z" fill="#FFFFFF" fill-opacity="1.000000" fill-rule="evenodd"/>
</svg>
