<svg width="80.000000" height="80.000000" viewBox="0 0 80 80" fill="none" xmlns="http://www.w3.org/2000/svg" xmlns:xlink="http://www.w3.org/1999/xlink">
	<desc>
			Created with Pixso.
	</desc>
	<defs/>
	<path id="Vector" d="M26.01 62.57L14.1 62.57L14.1 61.39L24.82 61.39L24.82 51.14L35.31 51.14L35.31 40L46.22 40L46.22 30.28L56.94 30.28L56.94 18.6L68.26 18.6L68.26 19.79L58.13 19.79L58.13 31.46L47.4 31.46L47.4 41.18L36.5 41.18L36.5 52.32L26.01 52.32L26.01 62.57Z" fill="#FFFFFF" fill-opacity="1.000000" fill-rule="nonzero"/>
	<path id="Vector" d="M20.56 33.3L19.73 32.47L33.77 18.78C33.95 18.6 34.19 18.54 34.42 18.66C34.66 18.78 34.78 18.96 34.78 19.2L34.78 29.45L33.59 29.45L33.59 20.56L20.56 33.3Z" fill="#FFFFFF" fill-opacity="1.000000" fill-rule="nonzero"/>
	<path id="Vector" d="M23.88 18.6L34.13 18.6L34.13 19.79L23.88 19.79L23.88 18.6Z" fill="#FFFFFF" fill-opacity="1.000000" fill-rule="evenodd"/>
	<path id="Vector" d="M78.81 1.18L78.81 78.81L1.18 78.81L1.18 1.18L78.81 1.18ZM80 0L0 0L0 80L80 80L80 0Z" fill="#FFFFFF" fill-opacity="1.000000" fill-rule="nonzero"/>
</svg>
