<svg width="48" height="48" viewBox="0 0 48 48" fill="none" xmlns="http://www.w3.org/2000/svg">
<path d="M47.8222 47.5345H0.177765V0.342773H41.1259C44.8 0.342773 47.763 3.24867 47.763 6.85197V47.5345H47.8222ZM1.36295 46.3721H46.5778V6.85197C46.5778 3.88796 44.1481 1.50513 41.1259 1.50513H1.36295V46.3721Z" fill="white"/>
<path d="M31.7629 18.2427H0.77034V19.405H31.7629V18.2427Z" fill="white"/>
<path d="M16.8889 38.9908L10.1333 33.0046H0.77034V31.8423H10.6074L17.6592 38.119L16.8889 38.9908Z" fill="white"/>
<path d="M26.9629 33.0045H22.4592V31.8421H25.7777V18.8237H26.9629V33.0045Z" fill="white"/>
<path d="M15.5259 13.1865H14.3407V18.824H15.5259V13.1865Z" fill="white"/>
<path d="M15.5259 0.92334H14.3407V6.56077H15.5259V0.92334Z" fill="white"/>
<path d="M47.0518 18.2427H41.3036V19.405H47.0518V18.2427Z" fill="white"/>
</svg>
