<svg width="80.000000" height="80.000000" viewBox="0 0 80 80" fill="none" xmlns="http://www.w3.org/2000/svg" xmlns:xlink="http://www.w3.org/1999/xlink">
	<desc>
			Created with Pixso.
	</desc>
	<defs/>
	<rect id="Rectangle 59" x="0.500000" y="0.500000" width="79.000000" height="79.000000" stroke="#FFFFFF" stroke-opacity="1.000000" stroke-width="1.000000"/>
	<path id="Rectangle 88" d="M64 57L15 57L15 24L65 24L65 57L64 57ZM64 56L41 56L41 25L64 25L64 56ZM39 25L16 25L16 56L39 56L39 25ZM37.5 44L37.5 37.5L35.5 37.5L35.5 44L37.5 44ZM44.5 44L44.5 37.5L42.5 37.5L42.5 44L44.5 44Z" fill="#FFFFFF" fill-opacity="1.000000" fill-rule="evenodd"/>
	<line id="Line 11" x1="15.500000" y1="15.000000" x2="15.499998" y2="65.000000" stroke="#FFFFFF" stroke-opacity="1.000000" stroke-width="1.000000"/>
	<line id="Line 12" x1="64.500000" y1="15.000000" x2="64.500000" y2="65.000000" stroke="#FFFFFF" stroke-opacity="1.000000" stroke-width="1.000000"/>
</svg>
