<svg width="53.000000" height="51.000000" viewBox="0 0 53 51" fill="none" xmlns="http://www.w3.org/2000/svg" xmlns:xlink="http://www.w3.org/1999/xlink">
	<desc>
			Created with Pixso.
	</desc>
	<defs/>
	<path id="Rectangle 86 (Stroke)" d="M26 4.97L6 4.97L6 49.1L26 49.1L26 4.97ZM5 3.99L5 50.08L27 50.08L27 3.99L5 3.99Z" fill="#FFFFFF" fill-opacity="1.000000" fill-rule="evenodd"/>
	<path id="Rectangle 87 (Stroke)" d="M47 4.97L27 4.97L27 49.1L47 49.1L47 4.97ZM26 3.99L26 50.08L48 50.08L48 3.99L26 3.99Z" fill="#FFFFFF" fill-opacity="1.000000" fill-rule="evenodd"/>
	<path id="Vector 6 (Stroke)" d="M-0.5 -0.43L52.5 -0.43L52.5 50.08L51.5 50.08L51.5 0.55L0.5 0.55L0.5 50.08L-0.5 50.08L-0.5 -0.43Z" fill="#FFFFFF" fill-opacity="1.000000" fill-rule="evenodd"/>
</svg>
