<svg width="80.000000" height="80.000000" viewBox="0 0 80 80" fill="none" xmlns="http://www.w3.org/2000/svg" xmlns:xlink="http://www.w3.org/1999/xlink">
	<desc>
			Created with Pixso.
	</desc>
	<defs/>
	<path id="Vector" d="M26.72 15.94L53.21 15.94L53.21 17.12L26.72 17.12L26.72 15.94Z" fill="#FFFFFF" fill-opacity="1.000000" fill-rule="evenodd"/>
	<path id="Vector" d="M26.72 62.87L53.21 62.87L53.21 64.05L26.72 64.05L26.72 62.87Z" fill="#FFFFFF" fill-opacity="1.000000" fill-rule="evenodd"/>
	<path id="Vector" d="M39.7 18.9L40.88 18.9L40.88 61.45L39.7 61.45L39.7 18.9Z" fill="#FFFFFF" fill-opacity="1.000000" fill-rule="evenodd"/>
	<path id="Vector" d="M31.88 28.2L31.05 27.37L39.94 18.48C40.17 18.25 40.53 18.25 40.77 18.48L49.6 27.37L48.77 28.2L40.29 19.73L31.88 28.2Z" fill="#FFFFFF" fill-opacity="1.000000" fill-rule="nonzero"/>
	<path id="Vector" d="M40.29 61.98C40.11 61.98 40 61.92 39.88 61.8L31.05 52.91L31.88 52.08L40.29 60.56L48.71 52.08L49.54 52.91L40.65 61.8C40.59 61.92 40.41 61.98 40.29 61.98Z" fill="#FFFFFF" fill-opacity="1.000000" fill-rule="nonzero"/>
	<path id="Vector" d="M78.81 1.18L78.81 78.81L1.18 78.81L1.18 1.18L78.81 1.18ZM80 0L0 0L0 80L80 80L80 0Z" fill="#FFFFFF" fill-opacity="1.000000" fill-rule="nonzero"/>
</svg>
