<svg width="80.000000" height="80.000000" viewBox="0 0 80 80" fill="none" xmlns="http://www.w3.org/2000/svg" xmlns:xlink="http://www.w3.org/1999/xlink">
	<desc>
			Created with Pixso.
	</desc>
	<defs/>
	<path id="Vector" d="M63.82 64.05L16.17 64.05L16.17 15.94L57.12 15.94C60.8 15.94 63.76 18.9 63.76 22.57L63.76 64.05L63.82 64.05ZM17.36 62.87L62.57 62.87L62.57 22.57C62.57 19.55 60.14 17.12 57.12 17.12L17.36 17.12L17.36 62.87Z" fill="#FFFFFF" fill-opacity="1.000000" fill-rule="nonzero"/>
	<path id="Vector" d="M16.77 34.19L47.76 34.19L47.76 35.37L16.77 35.37L16.77 34.19Z" fill="#FFFFFF" fill-opacity="1.000000" fill-rule="evenodd"/>
	<path id="Vector" d="M32.88 55.34L26.13 49.24L16.77 49.24L16.77 48.05L26.6 48.05L33.65 54.45L32.88 55.34Z" fill="#FFFFFF" fill-opacity="1.000000" fill-rule="nonzero"/>
	<path id="Vector" d="M42.96 49.24L38.45 49.24L38.45 48.05L41.77 48.05L41.77 34.78L42.96 34.78L42.96 49.24Z" fill="#FFFFFF" fill-opacity="1.000000" fill-rule="nonzero"/>
	<path id="Vector" d="M30.34 29.03L31.52 29.03L31.52 34.78L30.34 34.78L30.34 29.03Z" fill="#FFFFFF" fill-opacity="1.000000" fill-rule="evenodd"/>
	<path id="Vector" d="M30.34 16.53L31.52 16.53L31.52 22.28L30.34 22.28L30.34 16.53Z" fill="#FFFFFF" fill-opacity="1.000000" fill-rule="evenodd"/>
	<path id="Vector" d="M57.3 34.19L63.05 34.19L63.05 35.37L57.3 35.37L57.3 34.19Z" fill="#FFFFFF" fill-opacity="1.000000" fill-rule="evenodd"/>
	<path id="Vector" d="M78.81 1.18L78.81 78.81L1.18 78.81L1.18 1.18L78.81 1.18ZM80 0L0 0L0 80L80 80L80 0Z" fill="#FFFFFF" fill-opacity="1.000000" fill-rule="nonzero"/>
</svg>
