<svg width="27" height="22" viewBox="0 0 27 22" fill="none" xmlns="http://www.w3.org/2000/svg">
<path d="M24.015 1.17792C20.7458 2.49605 6.73718 8.16264 2.86984 9.71178C0.268434 10.7038 1.79867 11.6278 1.79867 11.6278C1.79867 11.6278 4.01057 12.3752 5.91641 12.9324C7.82226 13.4895 8.82387 12.8644 8.82387 12.8644L17.7549 6.99399C20.9267 4.8877 20.1616 6.62709 19.3964 7.36089C17.7549 8.96439 15.0283 11.5055 12.7468 13.5439C11.7313 14.4136 12.246 15.1474 12.6773 15.5279C14.3188 16.8868 18.8261 19.6725 19.0765 19.8627C20.412 20.7868 23.0412 22.1185 23.4446 19.3056L25.0305 9.58948C25.5313 6.31454 26.046 3.2842 26.1017 2.41451C26.2964 0.30822 24.015 1.17792 24.015 1.17792Z" stroke="black" stroke-miterlimit="10"/>
</svg>
