<svg width="22" height="22" viewBox="0 0 22 22" fill="none" xmlns="http://www.w3.org/2000/svg">
<path d="M5.65207 19.4341L6.02942 19.622C7.55982 20.5301 9.32083 21.0103 11.1028 20.9998C16.5955 20.9894 21.1133 16.48 21.1133 11.0104C21.1133 8.36946 20.0546 5.82251 18.1783 3.95405C16.302 2.06471 13.7443 1 11.0818 1C5.61014 1 1.11328 5.48848 1.11328 10.9268C1.11328 10.9686 1.11328 11.0104 1.11328 11.0521C1.13425 12.8997 1.64787 14.716 2.62272 16.3026L2.87429 16.6784L1.868 20.3631L5.65207 19.4341Z" stroke="black" stroke-miterlimit="10"/>
<path d="M16.3501 13.3834L15.7397 13.0985C15.7397 13.0985 14.8612 12.6996 14.3063 12.4242C14.2508 12.4242 14.1953 12.3672 14.1398 12.3672C14.0011 12.3672 13.8716 12.4052 13.7514 12.4812C13.6311 12.5477 13.6959 12.5382 12.9282 13.4404C12.8728 13.5448 12.771 13.6113 12.6508 13.6113H12.5953C12.5121 13.6018 12.4381 13.5543 12.3733 13.4973L12.0959 13.3834C11.504 13.127 10.9676 12.7661 10.4959 12.3103C10.385 12.1963 10.2185 12.0823 10.1075 11.9684C9.70058 11.5695 9.34914 11.1137 9.06244 10.6104L9.00695 10.4964C8.96071 10.4299 8.92372 10.3539 8.89597 10.2685C8.87748 10.1735 8.90522 10.069 8.95146 9.98358C8.99771 9.89811 9.17342 9.69868 9.33989 9.52774C9.50636 9.3568 9.50636 9.24284 9.61734 9.12888C9.72832 8.96743 9.77457 8.75851 9.72833 8.55908C9.46937 7.82783 9.17342 7.10609 8.84973 6.41283C8.75725 6.27038 8.61852 6.16592 8.4613 6.12793H7.85091C7.73993 6.12793 7.62895 6.18491 7.51797 6.18491L7.46248 6.24189C7.3515 6.29887 7.24052 6.41283 7.12954 6.46981C7.01856 6.52679 6.96307 6.69773 6.85209 6.81169C6.46366 7.31502 6.25095 7.9323 6.2417 8.56858C6.25095 9.01492 6.34343 9.46126 6.51915 9.86962L6.57464 10.0406C7.0648 11.1232 7.75843 12.1108 8.60928 12.9275L8.83123 13.1555C8.98846 13.2884 9.13643 13.4404 9.27516 13.6113C10.4127 14.6275 11.7722 15.3682 13.2334 15.7576C13.3999 15.8145 13.6219 15.8145 13.7883 15.8715H14.3432C14.6299 15.8525 14.9166 15.7766 15.1663 15.6436C15.3051 15.5771 15.4346 15.5011 15.5548 15.4157L15.6658 15.3017C15.7767 15.1878 15.8877 15.1308 15.9987 15.0168C16.1097 14.9219 16.2022 14.8079 16.2762 14.6749C16.3779 14.4185 16.4519 14.1526 16.4981 13.8867V13.4879C16.4611 13.4594 16.4056 13.4214 16.3501 13.3834Z" stroke="black" stroke-miterlimit="10"/>
</svg>
