<svg width="178" height="44" viewBox="0 0 178 44" fill="none" xmlns="http://www.w3.org/2000/svg">
<path d="M40 22.8879H37.1V7.39911H40V22.8879ZM48.3 16.1794H39.7V13.713H48.3V16.1794ZM48.1 7.39911H51V22.8879H48.1V7.39911Z" fill="white"/>
<path d="M85.7 22.8879V7.39911H92.7C94.5 7.39911 95.8 7.69507 96.8 8.38566C97.8 9.07624 98.3 10.0628 98.3 11.3453C98.3 12.6278 97.8 13.6144 96.9 14.305C96 14.9955 94.7 15.2915 93.2 15.2915L93.6 14.5023C95.3 14.5023 96.7 14.8969 97.6 15.5875C98.6 16.2781 99 17.2646 99 18.5471C99 19.9283 98.5 20.9148 97.5 21.7041C96.5 22.4933 95 22.8879 93.1 22.8879H85.7ZM88.6 14.009H92.5C93.4 14.009 94.2 13.8117 94.6 13.4171C95.1 13.0224 95.3 12.5292 95.3 11.8386C95.3 11.148 95.1 10.5561 94.6 10.1614C94.1 9.76683 93.4 9.56952 92.5 9.56952H88.6V14.009ZM88.6 20.6189H93.1C94.1 20.6189 94.9 20.4216 95.4 20.0269C95.9 19.6323 96.2 19.0404 96.2 18.2512C96.2 17.4619 95.9 16.87 95.4 16.574C94.9 16.1794 94.1 16.0807 93.1 16.0807H88.6V20.6189Z" fill="white"/>
<path d="M111.9 23.0852C110.7 23.0852 109.6 22.8879 108.6 22.4933C107.6 22.0987 106.7 21.5067 105.9 20.8162C105.1 20.1256 104.6 19.2377 104.1 18.2511C103.7 17.2646 103.5 16.1794 103.5 15.0942C103.5 14.009 103.7 12.9238 104.1 11.9372C104.5 10.9507 105.1 10.1614 105.9 9.37218C106.7 8.6816 107.5 8.08967 108.6 7.69505C109.6 7.30043 110.7 7.10312 111.9 7.10312C113.2 7.10312 114.4 7.30043 115.4 7.7937C116.5 8.18832 117.4 8.87891 118.1 9.7668L116.2 11.5426C115.6 10.9507 115 10.4574 114.3 10.1614C113.6 9.86546 112.8 9.66815 112 9.66815C111.2 9.66815 110.4 9.7668 109.7 10.0628C109 10.3587 108.4 10.6547 107.9 11.148C107.4 11.6412 107 12.2332 106.7 12.8251C106.4 13.5157 106.3 14.2063 106.3 14.9955C106.3 15.7848 106.4 16.4753 106.7 17.1659C107 17.8565 107.4 18.4484 107.9 18.8431C108.4 19.3363 109 19.7309 109.7 19.9283C110.4 20.2242 111.1 20.3229 112 20.3229C112.8 20.3229 113.6 20.1256 114.3 19.8296C115 19.5336 115.6 19.0404 116.2 18.4484L118.1 20.2242C117.4 21.1121 116.5 21.704 115.4 22.0987C114.4 22.8879 113.2 23.0852 111.9 23.0852Z" fill="white"/>
<path d="M123.9 22.8879V7.39911H126.8V22.8879H123.9ZM125.9 16.3767V13.9103H131.2V16.3767H125.9ZM131.5 15.4888L128.8 15.0942L134.1 7.39911H137.2L131.5 15.4888ZM134.2 22.8879L128.9 15.3902L131.3 13.9103L137.5 22.8879H134.2Z" fill="white"/>
<path d="M142.6 22.8879V7.39911H145.5V18.3498L153.9 7.39911H156.6V22.8879H153.7V11.9372L145.3 22.8879H142.6Z" fill="white"/>
<path d="M164 22.8878V7.79364H166.9V18.4484L175.3 7.79364H178V22.7892H175.1V12.2331L166.7 22.8878H164Z" fill="white"/>
<path d="M0 44V28.5112H12.2V30.8789H2.9V34.6278H7.5C9.4 34.6278 10.8 35.0224 11.8 35.8116C12.8 36.6009 13.3 37.6861 13.3 39.1659C13.3 40.6457 12.8 41.8296 11.7 42.7175C10.5 43.6054 9 44 7.1 44H0ZM2.9 41.8296H6.9C8 41.8296 8.9 41.6323 9.5 41.2377C10.1 40.843 10.4 40.1525 10.4 39.3632C10.4 37.7847 9.3 36.9955 7 36.9955H3V41.8296H2.9Z" fill="white"/>
<path d="M37.1 44V28.5112H43.5C44.9 28.5112 46.1 28.7085 47.1 29.2018C48.1 29.5964 48.9 30.287 49.4 31.0762C49.9 31.8654 50.2 32.852 50.2 34.0358C50.2 35.1211 49.9 36.1076 49.4 36.9955C48.9 37.7847 48.1 38.4753 47.1 38.8699C46.1 39.2646 44.9 39.5605 43.5 39.5605H38.7L40 38.1794V44H37.1ZM40 38.4753L38.7 37.0941H43.4C44.7 37.0941 45.7 36.7982 46.3 36.3049C46.9 35.8116 47.3 35.0224 47.3 34.0358C47.3 33.0493 47 32.2601 46.3 31.7668C45.6 31.2735 44.7 30.9775 43.4 30.9775H38.7L40 29.5964V38.4753Z" fill="white"/>
<path d="M21.5 41.6323H30.3V44H18.6V28.5112H30V30.8789H21.5V41.6323ZM21.3 35.0224H29.1V37.3901H21.3V35.0224Z" fill="white"/>
<path d="M85.1 44V28.5112H95.7V30.9775H87.3L88 30.287V44H85.1Z" fill="white"/>
<path d="M75.5999 11.5426C75.2999 11.5426 74.9999 11.5426 74.7999 11.5426C72.1999 11.3453 70.4999 10.5561 68.8999 9.76685C67.7999 9.17492 66.6999 8.68164 65.4999 8.48434C62.7999 7.89241 59.7999 8.68165 56.3999 10.5561C56.1999 10.6547 55.8999 10.6547 55.6999 10.3588C55.5999 10.1615 55.5999 9.8655 55.8999 9.66819C59.4999 7.59644 62.6999 6.8072 65.6999 7.39913C67.0999 7.6951 68.2999 8.28703 69.3999 8.7803C70.8999 9.56954 72.4999 10.3588 74.8999 10.4574C76.2999 10.5561 77.6999 10.3588 79.0999 9.96416C79.3999 9.8655 79.5999 10.0628 79.6999 10.2601C79.7999 10.5561 79.5999 10.7534 79.3999 10.8521C78.0999 11.444 76.7999 11.5426 75.5999 11.5426Z" fill="white"/>
<path d="M75.5999 17.5606C75.2999 17.5606 74.9999 17.5606 74.7999 17.5606C72.1999 17.3632 70.4999 16.574 68.8999 15.7848C67.7999 15.1928 66.6999 14.6996 65.4999 14.5022C62.7999 13.9103 59.7999 14.6009 56.3999 16.574C56.1999 16.6727 55.8999 16.6727 55.6999 16.3767C55.5999 16.1794 55.5999 15.8834 55.8999 15.6861C59.4999 13.6144 62.6999 12.8251 65.6999 13.417C67.0999 13.713 68.2999 14.3049 69.3999 14.7982C70.8999 15.5875 72.4999 16.3767 74.8999 16.4753C76.2999 16.574 77.6999 16.3767 79.0999 15.9821C79.3999 15.8834 79.5999 16.0807 79.6999 16.278C79.7999 16.574 79.5999 16.7713 79.3999 16.87C78.0999 17.3632 76.7999 17.5606 75.5999 17.5606Z" fill="white"/>
<path d="M75.5999 24.269C75.2999 24.269 74.9999 24.269 74.7999 24.269C72.1999 24.0717 70.4999 23.2825 68.8999 22.4932C67.7999 21.9013 66.6999 21.408 65.4999 21.2107C62.7999 20.6188 59.7999 21.408 56.3999 23.2825C56.1999 23.3811 55.8999 23.3811 55.6999 23.0852C55.5999 22.8878 55.5999 22.5919 55.8999 22.3946C59.4999 20.3228 62.6999 19.5336 65.6999 20.1255C67.0999 20.4215 68.2999 21.0134 69.3999 21.5067C70.8999 22.2959 72.4999 23.0852 74.8999 23.1838C76.2999 23.2825 77.6999 23.0852 79.0999 22.6905C79.3999 22.5919 79.5999 22.7892 79.6999 22.9865C79.7999 23.2825 79.5999 23.4798 79.3999 23.5784C78.0999 24.0717 76.7999 24.269 75.5999 24.269Z" fill="white"/>
<path d="M75.5999 30.6816C75.2999 30.6816 74.9999 30.6816 74.7999 30.6816C72.1999 30.4843 70.4999 29.695 68.8999 28.9058C67.7999 28.3139 66.6999 27.8206 65.4999 27.6233C62.7999 27.0314 59.7999 27.8206 56.3999 29.695C56.1999 29.7937 55.8999 29.7937 55.6999 29.4977C55.5999 29.3004 55.5999 29.0045 55.8999 28.8071C59.3999 26.7354 62.6999 25.9461 65.6999 26.5381C67.0999 26.834 68.2999 27.426 69.3999 27.9192C70.8999 28.7085 72.4999 29.4977 74.8999 29.5964C76.2999 29.695 77.6999 29.4977 79.0999 29.1031C79.3999 29.0045 79.5999 29.2018 79.6999 29.3991C79.7999 29.695 79.5999 29.8923 79.3999 29.991C78.0999 30.5829 76.7999 30.6816 75.5999 30.6816Z" fill="white"/>
<path d="M75.5999 36.6009C75.2999 36.6009 74.9999 36.6009 74.7999 36.6009C72.1999 36.4036 70.4999 35.6143 68.8999 34.8251C67.7999 34.2332 66.6999 33.7399 65.4999 33.5426C62.7999 32.9507 59.7999 33.7399 56.3999 35.6143C56.1999 35.713 55.8999 35.713 55.6999 35.417C55.5999 35.2197 55.5999 34.9238 55.8999 34.7265C59.4999 32.6547 62.6999 31.8655 65.6999 32.4574C67.0999 32.7534 68.2999 33.3453 69.3999 33.8386C70.8999 34.6278 72.4999 35.417 74.8999 35.5157C76.2999 35.6143 77.6999 35.417 79.0999 35.0224C79.3999 34.9238 79.5999 35.1211 79.6999 35.3184C79.7999 35.6143 79.5999 35.8117 79.3999 35.9103C78.0999 36.4036 76.7999 36.6009 75.5999 36.6009Z" fill="white"/>
<path d="M75.5999 42.8162C75.2999 42.8162 74.9999 42.8162 74.7999 42.8162C72.1999 42.6189 70.4999 41.8296 68.8999 41.0404C67.7999 40.4485 66.6999 39.9552 65.4999 39.7579C62.7999 39.166 59.7999 39.9552 56.3999 41.8296C56.1999 41.9283 55.8999 41.9283 55.6999 41.6323C55.5999 41.435 55.5999 41.1391 55.8999 40.9418C59.4999 38.87 62.6999 38.0808 65.6999 38.6727C67.0999 38.9687 68.2999 39.5606 69.3999 40.0539C70.8999 40.8431 72.4999 41.6323 74.8999 41.731C76.2999 41.8296 77.6999 41.6323 79.0999 41.2377C79.3999 41.1391 79.5999 41.3364 79.6999 41.5337C79.7999 41.8296 79.5999 42.027 79.3999 42.1256C78.0999 42.6189 76.7999 42.8162 75.5999 42.8162Z" fill="white"/>
<path d="M171.1 5.62333C170.8 5.62333 170.6 5.32737 170.4 4.83409C170 4.24216 169.5 3.25561 168.6 2.26906C167.2 0.690584 164.8 1.0852 164.7 1.0852C164.4 1.0852 164.2 0.986549 164.1 0.690585C164 0.39462 164.2 0.19731 164.5 0.0986549C164.6 0.0986549 167.5 -0.39462 169.3 1.57848C170.1 2.36772 170.6 3.25561 171 3.84754C171.4 2.76234 172.4 1.38117 174.2 0.789239C176.6 0.098655 177.4 0 177.5 0C177.8 0 178 0.19731 178 0.493275C178 0.789239 177.8 0.986549 177.5 0.986549C177.5 0.986549 176.7 1.0852 174.5 1.77579C172.3 2.46637 171.7 4.63678 171.7 4.93275V5.32737L171.3 5.52468C171.2 5.62333 171.2 5.62333 171.1 5.62333Z" fill="white"/>
</svg>
