<svg width="240.000000" height="67.000000" viewBox="0 0 240 67" fill="none" xmlns="http://www.w3.org/2000/svg" xmlns:xlink="http://www.w3.org/1999/xlink">
	<desc>
			Created with Pixso.
	</desc>
	<defs/>
	<path id="Vector" d="M172.24 34.4L172.24 7.58L178.41 7.58L178.41 25.05L191.21 7.58L197.03 7.58L197.03 34.4L190.9 34.4L190.9 16.97L178.1 34.4L172.24 34.4ZM184.61 5.86C182.06 5.86 180.18 5.35 178.98 4.32C177.81 3.3 177.21 1.86 177.18 0L181.43 0C181.46 0.91 181.73 1.62 182.24 2.1C182.78 2.56 183.57 2.79 184.61 2.79C185.64 2.79 186.42 2.56 186.95 2.1C187.49 1.62 187.77 0.91 187.8 0L192.05 0C192.02 1.86 191.41 3.3 190.21 4.32C189.01 5.35 187.14 5.86 184.61 5.86Z" fill="#FFFFFF" fill-opacity="1.000000" fill-rule="nonzero"/>
	<path id="Vector" d="M140.77 34.4L140.77 7.58L146.94 7.58L146.94 25.05L159.74 7.58L165.56 7.58L165.56 34.4L159.43 34.4L159.43 16.97L146.63 34.4L140.77 34.4Z" fill="#FFFFFF" fill-opacity="1.000000" fill-rule="nonzero"/>
	<path id="Vector" d="M130.81 34.4L122.46 21.49L127.48 18.46L137.86 34.4L130.81 34.4ZM113.38 34.4L113.38 7.58L119.54 7.58L119.54 34.4L113.38 34.4ZM117.74 23.6L117.74 18.43L127.09 18.43L127.09 23.6L117.74 23.6ZM128.05 21.68L122.34 20.99L131.04 7.58L137.59 7.58L128.05 21.68Z" fill="#FFFFFF" fill-opacity="1.000000" fill-rule="nonzero"/>
	<path id="Vector" d="M98.33 34.86C96.26 34.86 94.33 34.53 92.55 33.87C90.78 33.18 89.25 32.21 87.95 30.96C86.64 29.7 85.62 28.24 84.88 26.55C84.17 24.86 83.81 23.01 83.81 20.99C83.81 18.98 84.17 17.12 84.88 15.44C85.62 13.75 86.64 12.28 87.95 11.03C89.28 9.78 90.82 8.82 92.58 8.16C94.35 7.47 96.28 7.12 98.37 7.12C100.7 7.12 102.79 7.53 104.65 8.35C106.55 9.14 108.13 10.32 109.41 11.87L105.42 15.55C104.5 14.5 103.48 13.73 102.36 13.21C101.23 12.68 100.01 12.41 98.68 12.41C97.43 12.41 96.28 12.61 95.23 13.02C94.18 13.43 93.27 14.02 92.51 14.79C91.74 15.55 91.14 16.46 90.71 17.51C90.3 18.55 90.09 19.72 90.09 20.99C90.09 22.27 90.3 23.43 90.71 24.48C91.14 25.53 91.74 26.43 92.51 27.2C93.27 27.97 94.18 28.55 95.23 28.96C96.28 29.37 97.43 29.58 98.68 29.58C100.01 29.58 101.23 29.32 102.36 28.81C103.48 28.27 104.5 27.47 105.42 26.4L109.41 30.07C108.13 31.63 106.55 32.82 104.65 33.64C102.79 34.46 100.68 34.86 98.33 34.86Z" fill="#FFFFFF" fill-opacity="1.000000" fill-rule="nonzero"/>
	<path id="Vector" d="M57.1 34.4L57.1 7.58L69.59 7.58C72.71 7.58 75.13 8.18 76.87 9.38C78.61 10.58 79.48 12.3 79.48 14.52C79.48 16.71 78.66 18.43 77.02 19.65C75.39 20.85 73.22 21.45 70.51 21.45L71.24 19.84C74.25 19.84 76.59 20.44 78.25 21.64C79.91 22.85 80.74 24.58 80.74 26.86C80.74 29.21 79.85 31.06 78.06 32.41C76.29 33.74 73.71 34.4 70.32 34.4L57.1 34.4ZM63.27 29.81L70.09 29.81C71.52 29.81 72.6 29.53 73.34 28.96C74.08 28.4 74.46 27.53 74.46 26.36C74.46 25.23 74.08 24.4 73.34 23.87C72.6 23.31 71.52 23.02 70.09 23.02L63.27 23.02L63.27 29.81ZM63.27 18.69L69.05 18.69C70.41 18.69 71.43 18.43 72.12 17.89C72.81 17.33 73.15 16.51 73.15 15.44C73.15 14.36 72.81 13.56 72.12 13.02C71.43 12.46 70.41 12.18 69.05 12.18L63.27 12.18L63.27 18.69Z" fill="#FFFFFF" fill-opacity="1.000000" fill-rule="nonzero"/>
	<path id="Vector" d="M37.02 18.39L49.94 18.39L49.94 23.22L37.02 23.22L37.02 18.39ZM37.48 29.42L52.08 29.42L52.08 34.4L31.32 34.4L31.32 7.58L51.59 7.58L51.59 12.56L37.48 12.56L37.48 29.42Z" fill="#FFFFFF" fill-opacity="1.000000" fill-rule="nonzero"/>
	<path id="Vector" d="M18.39 7.58L24.6 7.58L24.6 34.4L18.39 34.4L18.39 7.58ZM6.2 34.4L0 34.4L0 7.58L6.2 7.58L6.2 34.4ZM18.85 23.41L5.74 23.41L5.74 18.16L18.85 18.16L18.85 23.41Z" fill="#FFFFFF" fill-opacity="1.000000" fill-rule="nonzero"/>
	<path id="Vector" d="M220.24 66.97L220.24 40.15L239.17 40.15L239.13 45.21L224.95 45.21L226.37 43.79L226.41 66.97L220.24 66.97Z" fill="#FFFFFF" fill-opacity="1.000000" fill-rule="nonzero"/>
	<path id="Vector" d="M200.17 50.96L213.08 50.96L213.08 55.79L200.17 55.79L200.17 50.96ZM200.63 61.99L215.23 61.99L215.23 66.97L194.46 66.97L194.46 40.15L214.73 40.15L214.73 45.13L200.63 45.13L200.63 61.99Z" fill="#FFFFFF" fill-opacity="1.000000" fill-rule="nonzero"/>
	<path id="Vector" d="M167.1 66.97L167.1 40.15L178.71 40.15C181.12 40.15 183.18 40.55 184.92 41.34C186.66 42.11 188 43.22 188.95 44.67C189.89 46.13 190.36 47.87 190.36 49.88C190.36 51.88 189.89 53.6 188.95 55.06C188 56.51 186.66 57.64 184.92 58.43C183.18 59.2 181.12 59.58 178.71 59.58L170.55 59.58L173.31 56.78L173.31 66.97L167.1 66.97ZM173.31 57.47L170.55 54.52L178.37 54.52C180.29 54.52 181.72 54.11 182.66 53.3C183.61 52.48 184.08 51.34 184.08 49.88C184.08 48.4 183.61 47.25 182.66 46.44C181.72 45.62 180.29 45.21 178.37 45.21L170.55 45.21L173.31 42.26L173.31 57.47Z" fill="#FFFFFF" fill-opacity="1.000000" fill-rule="nonzero"/>
	<path id="Vector" d="M147.03 50.96L159.94 50.96L159.94 55.79L147.03 55.79L147.03 50.96ZM147.49 61.99L162.09 61.99L162.09 66.97L141.32 66.97L141.32 40.15L161.59 40.15L161.59 45.13L147.49 45.13L147.49 61.99Z" fill="#FFFFFF" fill-opacity="1.000000" fill-rule="nonzero"/>
	<path id="Vector" d="M113.03 66.97L113.03 40.15L134.68 40.15L134.68 45.09L119.2 45.09L119.2 50.61L126.64 50.61C129.88 50.61 132.35 51.29 134.03 52.64C135.74 54 136.6 55.96 136.6 58.54C136.6 61.2 135.65 63.27 133.76 64.75C131.87 66.23 129.2 66.97 125.75 66.97L113.03 66.97ZM119.2 62.38L125.41 62.38C126.99 62.38 128.21 62.07 129.05 61.46C129.89 60.82 130.31 59.9 130.31 58.7C130.31 56.35 128.68 55.17 125.41 55.17L119.2 55.17L119.2 62.38Z" fill="#FFFFFF" fill-opacity="1.000000" fill-rule="nonzero"/>
</svg>
