<svg width="30" height="28" viewBox="0 0 30 28" fill="none" xmlns="http://www.w3.org/2000/svg">
<path d="M11.3118 20.3284C11.9139 19.4252 12.2903 18.3714 12.2903 17.2424C12.2903 14.1564 9.73114 11.5972 6.64514 11.5972C3.55913 11.5972 1 14.1564 1 17.2424C1 20.3284 3.55913 22.8875 6.64514 22.8875C7.62363 22.8875 8.60212 22.5864 9.43007 22.1348L14.3754 27.0801C14.6012 27.3059 14.9775 27.4565 15.2786 27.4565C15.5797 27.4565 15.956 27.3059 16.1818 27.0801C16.7087 26.5532 16.7087 25.7253 16.1818 25.2737L11.3118 20.3284Z" stroke="white" stroke-miterlimit="10"/>
<path d="M7.17236 9.56496L15.6777 1.05962C15.8282 0.909082 15.9788 0.909082 16.1293 1.05962L29.0002 13.9305" stroke="white" stroke-miterlimit="10" stroke-linecap="round" stroke-linejoin="round"/>
<path d="M7.02197 13.7047C8.22627 13.5542 9.5811 14.7585 9.65637 16.0381" stroke="white" stroke-miterlimit="10" stroke-linecap="round" stroke-linejoin="round"/>
<path d="M10.0317 10.4682L15.9027 4.59726L26.0639 14.7585V21.6079H17.7091V14.4574H14.7737V21.6079" stroke="white" stroke-miterlimit="10" stroke-linecap="round" stroke-linejoin="round"/>
</svg>
